<?xml version="1.0" encoding="UTF-8"?>
<svg version="1.1" xmlns="http://www.w3.org/2000/svg" width="512" height="512">
<path d="M0 0 C5.0019664 3.30388187 8.03076427 7.51099337 10.0625 13.125 C11.2188045 19.88686763 10.70208871 25.01047449 7.74658203 31.1796875 C5.22894266 36.62393785 3.24573643 42.10917657 1.41796875 47.81640625 C1.09168488 48.81764526 0.765401 49.81888428 0.42922974 50.85046387 C-0.63678913 54.12747668 -1.69347901 57.40741398 -2.75 60.6875 C-3.50774732 63.02350931 -4.26597558 65.35936265 -5.0246582 67.69506836 C-10.25956968 83.83378937 -15.42363901 99.9952698 -20.57220459 116.16171265 C-27.60924558 138.25121058 -34.85150625 160.27276113 -42.11387062 182.28898525 C-43.05170304 185.13259014 -43.98857822 187.97650997 -44.92537689 190.82045555 C-45.57527813 192.7917566 -46.22683369 194.76250552 -46.878479 196.73323059 C-47.2678363 197.91487289 -47.6571936 199.0965152 -48.05834961 200.31396484 C-48.39869736 201.34451996 -48.7390451 202.37507507 -49.08970642 203.43685913 C-49.78982967 205.65677442 -50.40801525 207.85952078 -50.9375 210.125 C-49.84875832 210.324636 -49.84875832 210.324636 -48.73802185 210.52830505 C-46.11188781 211.08784395 -43.66925546 211.80852727 -41.12915039 212.67211914 C-40.19949966 212.98657486 -39.26984894 213.30103058 -38.31202698 213.62501526 C-37.31315964 213.96661179 -36.3142923 214.30820831 -35.28515625 214.66015625 C-34.23460556 215.01710068 -33.18405487 215.3740451 -32.10166931 215.74180603 C-29.86942881 216.50108028 -27.63771659 217.26190918 -25.40649414 218.02416992 C-22.07249003 219.16274439 -18.73660595 220.29565804 -15.40039062 221.42773438 C-8.90453133 223.63659839 -2.41880072 225.87381038 4.0625 228.125 C5.10513 228.48551453 6.14776001 228.84602905 7.22198486 229.21746826 C10.21589925 230.25739991 13.20432822 231.31170672 16.19140625 232.37109375 C17.0730394 232.67620377 17.95467255 232.98131378 18.86302185 233.29566956 C25.66418924 235.73692328 33.34569814 238.61763719 37 245.25 C37.38027344 245.91257812 37.76054687 246.57515625 38.15234375 247.2578125 C39.64905049 250.3283096 40.24077507 252.93545106 40.3125 256.3125 C40.35117187 257.38564453 40.35117187 257.38564453 40.390625 258.48046875 C39.10692142 268.82650832 32.46280985 274.28704135 25.3125 281.125 C23.167215 283.20356561 21.02856414 285.28888267 18.890625 287.375 C18.1108429 288.13248535 18.1108429 288.13248535 17.31530762 288.90527344 C14.00387166 292.14040413 10.93521411 295.49106413 7.94042969 299.015625 C3.05972913 304.49784715 -2.31793486 309.5517547 -7.54003906 314.70703125 C-12.9139018 320.01829227 -18.20517712 325.32625479 -23.11328125 331.078125 C-27.62174616 336.13687364 -32.57021431 340.80510909 -37.39453125 345.56152344 C-44.09331399 352.14479571 -44.09331399 352.14479571 -50.40625 359.09375 C-55.55817744 365.11659851 -61.32932133 370.57189427 -66.96728516 376.13427734 C-73.88656564 382.92464782 -73.88656564 382.92464782 -80.40625 390.09375 C-85.72792569 396.32260209 -91.71385414 401.95540446 -97.54003906 407.70703125 C-102.90824444 413.01270082 -108.20313593 418.31272567 -113.10888672 424.05615234 C-116.75377445 428.17988781 -120.65269906 432.06480102 -124.53540039 435.96313477 C-126.00808557 437.44563948 -127.46975236 438.93849769 -128.93164062 440.43164062 C-129.8821534 441.38867589 -130.83330314 442.34507905 -131.78515625 443.30078125 C-132.63086182 444.15583252 -133.47656738 445.01088379 -134.34790039 445.8918457 C-140.15631643 450.9007626 -145.15672581 451.73071016 -152.61328125 451.53515625 C-160.47565726 450.56506285 -166.05964834 446.83296345 -170.87890625 440.67578125 C-174.09984781 435.95728015 -173.42827032 430.6317835 -172.9375 425.125 C-171.78447247 420.22894428 -170.13431362 415.53575614 -168.43359375 410.80859375 C-167.95759955 409.44249819 -167.48326448 408.07582356 -167.01046753 406.70861816 C-165.74788396 403.07200939 -164.4629919 399.44366911 -163.17355728 395.81650925 C-161.82687041 392.01534842 -160.50176915 388.20667732 -159.17456055 384.39868164 C-156.81587062 377.6400038 -154.44091415 370.88720166 -152.05758572 364.13717747 C-149.94756741 358.15926192 -147.85561681 352.17517111 -145.7734375 346.1875 C-145.17197457 344.45857114 -144.57049398 342.72964843 -143.96899414 341.00073242 C-143.683638 340.18043549 -143.39828186 339.36013855 -143.10427856 338.51498413 C-142.24792655 336.05654748 -141.38898444 333.59903235 -140.52905273 331.1418457 C-135.34577997 316.33085306 -130.21701284 301.50114935 -125.09920883 286.66743851 C-124.45072978 284.78833603 -123.80174044 282.90940969 -123.15274048 281.03048706 C-117.99316341 266.09057047 -112.89749795 251.13243262 -107.9375 236.125 C-108.82904785 235.82734238 -109.7205957 235.52968475 -110.63916016 235.2230072 C-119.11327814 232.39270219 -127.58471761 229.55450331 -136.05371094 226.7088995 C-140.40594468 225.24680989 -144.75902033 223.78734865 -149.11425781 222.33422852 C-153.33102985 220.92719329 -157.54527839 219.51281816 -161.75799561 218.09369087 C-163.35157579 217.55822586 -164.94599321 217.0252447 -166.5413208 216.49500847 C-174.72813948 213.77212006 -182.80393987 210.89729165 -190.734375 207.49047852 C-191.3873053 207.21393653 -192.0402356 206.93739454 -192.71295166 206.6524725 C-198.70315535 204.00595389 -202.97730714 201.04538572 -205.9375 195.125 C-207.82326173 188.77715418 -207.85320682 182.38683736 -205.25 176.25 C-202.10452435 170.58461949 -197.42733677 166.62371001 -192.62109375 162.4140625 C-187.96226792 158.32112152 -183.65169849 153.89270424 -179.31494141 149.46411133 C-176.30034478 146.40839524 -173.24113577 143.47810629 -169.98828125 140.67578125 C-165.75891322 137.02646418 -161.84734851 133.11121274 -157.9375 129.125 C-153.41774688 124.51697045 -148.82817773 120.11482203 -143.9375 115.90234375 C-140.44778722 112.80113415 -137.2053338 109.45665868 -133.9375 106.125 C-129.41774688 101.51697045 -124.82817773 97.11482203 -119.9375 92.90234375 C-116.44778722 89.80113415 -113.2053338 86.45665868 -109.9375 83.125 C-105.41774688 78.51697045 -100.82817773 74.11482203 -95.9375 69.90234375 C-92.44778722 66.80113415 -89.2053338 63.45665868 -85.9375 60.125 C-82.05466293 56.16632627 -78.17409338 52.27441662 -73.96875 48.65625 C-69.56546818 44.86357952 -65.50763076 40.76926794 -61.4375 36.625 C-57.39955286 32.51350191 -53.38052533 28.44810552 -49 24.69921875 C-43.30590891 19.80437201 -38.1851867 14.31529385 -33.00390625 8.88867188 C-23.79440138 -0.52233756 -13.14543852 -6.23964227 0 0 Z " fill="#A2E67F" transform="translate(335.9375,29.875)"/>
</svg>
