<?xml version="1.0" encoding="UTF-8"?>
<svg version="1.1" xmlns="http://www.w3.org/2000/svg" width="512" height="512">
<path d="M0 0 C1.00853027 -0.00700928 2.01706055 -0.01401855 3.05615234 -0.02124023 C6.39188114 -0.03885406 9.72676248 -0.02718497 13.0625 -0.01367188 C15.37890791 -0.0163658 17.69531472 -0.02024739 20.01171875 -0.02526855 C24.86729698 -0.03116822 29.72258096 -0.02258526 34.578125 -0.00390625 C40.80614646 0.01888316 47.03347845 0.00576265 53.26147461 -0.01819611 C58.04497485 -0.0326412 62.82831127 -0.02805393 67.61181641 -0.01768494 C69.90836671 -0.0150141 72.20493183 -0.01829988 74.50146484 -0.02760315 C77.7097114 -0.03774714 80.91683706 -0.02229671 84.125 0 C85.55271729 -0.01214539 85.55271729 -0.01214539 87.00927734 -0.02453613 C93.416186 0.05807275 93.416186 0.05807275 96.6552124 2.36090088 C98.60839237 5.35416168 98.51775675 7.47845672 98.453125 11.03320312 C98.44023437 12.28359375 98.42734375 13.53398437 98.4140625 14.82226562 C98.36378906 16.77519531 98.36378906 16.77519531 98.3125 18.76757812 C98.29445313 20.085 98.27640625 21.40242188 98.2578125 22.75976562 C98.21066271 26.0131012 98.14486044 29.26497437 98.0625 32.51757812 C98.77865479 32.35523682 99.49480957 32.19289551 100.23266602 32.02563477 C108.94893569 30.33565421 118.64395337 28.93920176 127.0625 32.51757812 C133.90047479 37.17865863 139.15920354 43.97099061 144.54815674 50.16583252 C152.29300276 58.97062636 157.8341411 65.08075138 169.87841797 66.109375 C175.29534837 65.90658505 180.6798617 65.15903243 186.0625 64.51757812 C186.0625 75.07757813 186.0625 85.63757813 186.0625 96.51757812 C191.3425 96.51757812 196.6225 96.51757812 202.0625 96.51757812 C202.0625 101.79757813 202.0625 107.07757813 202.0625 112.51757812 C196.7825 112.51757812 191.5025 112.51757812 186.0625 112.51757812 C186.0625 117.79757813 186.0625 123.07757813 186.0625 128.51757812 C191.3425 128.51757812 196.6225 128.51757812 202.0625 128.51757812 C202.0625 133.79757813 202.0625 139.07757813 202.0625 144.51757812 C186.2225 144.51757812 170.3825 144.51757812 154.0625 144.51757812 C154.0625 139.23757812 154.0625 133.95757812 154.0625 128.51757812 C159.3425 128.51757812 164.6225 128.51757812 170.0625 128.51757812 C170.0625 123.23757812 170.0625 117.95757812 170.0625 112.51757812 C164.7825 112.51757812 159.5025 112.51757812 154.0625 112.51757812 C154.0625 107.23757812 154.0625 101.95757812 154.0625 96.51757812 C159.3425 96.51757812 164.6225 96.51757812 170.0625 96.51757812 C170.0625 91.23757812 170.0625 85.95757812 170.0625 80.51757812 C146.3025 80.51757812 122.5425 80.51757812 98.0625 80.51757812 C98.0625 85.79757813 98.0625 91.07757813 98.0625 96.51757812 C99.96 96.43507813 101.8575 96.35257812 103.8125 96.26757812 C109.43078806 96.02330473 109.43078806 96.02330473 112.17823994 98.17300665 C114.46180844 101.01443479 114.78678215 102.82277365 115.22628593 106.42134666 C115.37352537 107.57938451 115.5207648 108.73742235 115.67246604 109.93055224 C115.80117725 111.11427078 115.92988845 112.29798933 116.0625 113.51757812 C116.18394701 114.5961317 116.30539402 115.67468527 116.43052125 116.78592229 C116.79452928 120.20758605 117.1225265 123.63117277 117.44192505 127.05728149 C117.56614047 128.35667487 117.69035589 129.65606824 117.81833541 130.99483716 C118.15925677 134.56225509 118.49550664 138.13009948 118.83092093 141.69803882 C119.19486638 145.56047 119.56323306 149.42247994 119.93103027 153.2845459 C120.64911135 160.83205177 121.36317623 168.37993236 122.07586707 175.92794891 C122.90616187 184.71979691 123.74053456 193.5112565 124.5750799 202.30270188 C126.06339124 217.98259711 127.54811504 233.66282993 129.03076172 249.34326172 C130.46965799 264.56094824 131.91095425 279.77840486 133.35498047 294.99560547 C133.44406489 295.93438446 133.53314931 296.87316344 133.62493326 297.84039028 C133.71386444 298.7775477 133.80279563 299.71470512 133.8944217 300.68026125 C134.07347577 302.56713772 134.25252904 304.45401426 134.4315815 306.34089088 C134.56403412 307.73668539 134.56403412 307.73668539 134.69916255 309.16067777 C136.07574217 323.66816935 137.45019868 338.17586217 138.82441179 352.68357808 C139.32257222 357.94245372 139.82103634 363.20130048 140.31971683 368.46012683 C141.10993046 376.7934335 141.89923148 385.12682547 142.68662013 393.46039958 C143.04643398 397.26842916 143.40669025 401.07641545 143.76815414 404.88428879 C144.15932029 409.00528535 144.54830238 413.12648504 144.93704224 417.24771118 C145.05240645 418.45964476 145.16777066 419.67157834 145.28663075 420.92023718 C145.38989922 422.01894625 145.49316769 423.11765531 145.59956551 424.24965858 C145.68961424 425.20140547 145.77966297 426.15315236 145.87244046 427.13374007 C146.0625 429.51757812 146.0625 429.51757812 146.0625 432.51757812 C167.1825 432.51757812 188.3025 432.51757812 210.0625 432.51757812 C210.0625 448.35757812 210.0625 464.19757813 210.0625 480.51757812 C99.1825 480.51757812 -11.6975 480.51757812 -125.9375 480.51757812 C-125.9375 464.67757813 -125.9375 448.83757812 -125.9375 432.51757812 C-104.8175 432.51757812 -83.6975 432.51757812 -61.9375 432.51757812 C-61.40519775 426.46019287 -60.87289551 420.40280762 -60.32446289 414.16186523 C-56.15629802 367.10463708 -51.64851275 320.07725279 -47.20332241 273.04553318 C-46.89047975 269.73519253 -46.57766977 266.42484879 -46.26489258 263.11450195 C-46.14834609 261.88103221 -46.14834609 261.88103221 -46.02944512 260.62264388 C-44.76015964 247.1863354 -43.50020135 233.74916771 -42.24367034 220.31166113 C-40.94505329 206.42602503 -39.63736022 192.54126624 -38.32097393 178.65730327 C-37.58535965 170.89615695 -36.85381629 163.13467358 -36.13271904 155.37216377 C-35.52188711 148.79666792 -34.90298209 142.22199689 -34.27336698 135.64827181 C-33.95293217 132.29995653 -33.63773864 128.95136615 -33.33041954 125.60180664 C-32.99683279 121.97272534 -32.64849623 118.34535533 -32.29637146 114.71803284 C-32.20278286 113.66117596 -32.10919426 112.60431908 -32.01276964 111.51543623 C-31.48719496 106.27100879 -30.88585229 102.04035702 -27.9375 97.51757812 C-25.17297967 96.13531796 -22.8913637 96.42232426 -19.8125 96.45507812 C-16.904375 96.48601562 -16.904375 96.48601562 -13.9375 96.51757812 C-13.9375 91.23757812 -13.9375 85.95757812 -13.9375 80.51757812 C-37.6975 80.51757812 -61.4575 80.51757812 -85.9375 80.51757812 C-85.9375 85.79757813 -85.9375 91.07757813 -85.9375 96.51757812 C-80.6575 96.51757812 -75.3775 96.51757812 -69.9375 96.51757812 C-69.9375 101.79757813 -69.9375 107.07757813 -69.9375 112.51757812 C-75.2175 112.51757812 -80.4975 112.51757812 -85.9375 112.51757812 C-85.9375 117.79757813 -85.9375 123.07757813 -85.9375 128.51757812 C-80.6575 128.51757812 -75.3775 128.51757812 -69.9375 128.51757812 C-69.9375 133.79757813 -69.9375 139.07757813 -69.9375 144.51757812 C-85.7775 144.51757812 -101.6175 144.51757812 -117.9375 144.51757812 C-117.9375 139.23757812 -117.9375 133.95757812 -117.9375 128.51757812 C-112.6575 128.51757812 -107.3775 128.51757812 -101.9375 128.51757812 C-101.9375 123.23757812 -101.9375 117.95757812 -101.9375 112.51757812 C-107.2175 112.51757812 -112.4975 112.51757812 -117.9375 112.51757812 C-117.9375 107.23757812 -117.9375 101.95757812 -117.9375 96.51757812 C-112.6575 96.51757812 -107.3775 96.51757812 -101.9375 96.51757812 C-101.9375 85.95757812 -101.9375 75.39757812 -101.9375 64.51757812 C-97.956875 64.99195312 -93.97625 65.46632813 -89.875 65.95507812 C-82.2117757 66.24196106 -75.92451965 65.56841903 -70.03613281 60.42773438 C-65.96848886 56.47301779 -62.22157341 52.23319265 -58.5 47.95507812 C-44.11640974 31.42834798 -44.11640974 31.42834798 -34.53125 30.46289062 C-27.6014864 30.08145035 -20.68849424 30.98723125 -13.9375 32.51757812 C-13.9689209 31.27669434 -13.9689209 31.27669434 -14.00097656 30.01074219 C-14.08411619 26.26314442 -14.13615531 22.51574063 -14.1875 18.76757812 C-14.22101563 17.465625 -14.25453125 16.16367187 -14.2890625 14.82226562 C-14.30839844 12.94667969 -14.30839844 12.94667969 -14.328125 11.03320312 C-14.3595459 9.30505371 -14.3595459 9.30505371 -14.39160156 7.54199219 C-13.9375 4.51757813 -13.9375 4.51757813 -12.5302124 2.36090088 C-8.54536952 -0.47217523 -4.7769011 -0.04063641 0 0 Z M2.0625 16.51757812 C2.0625 21.79757813 2.0625 27.07757813 2.0625 32.51757812 C28.4625 32.51757812 54.8625 32.51757812 82.0625 32.51757812 C82.0625 27.23757812 82.0625 21.95757812 82.0625 16.51757812 C55.6625 16.51757812 29.2625 16.51757812 2.0625 16.51757812 Z M-48.9375 63.51757812 C-48.9375 63.84757812 -48.9375 64.17757812 -48.9375 64.51757812 C-37.3875 64.51757812 -25.8375 64.51757812 -13.9375 64.51757812 C-13.9375 59.23757812 -13.9375 53.95757812 -13.9375 48.51757812 C-30.48495633 46.24965264 -39.12131168 49.70932244 -48.9375 63.51757812 Z M2.0625 48.51757812 C2.0625 53.79757813 2.0625 59.07757813 2.0625 64.51757812 C28.4625 64.51757812 54.8625 64.51757812 82.0625 64.51757812 C82.0625 59.23757812 82.0625 53.95757812 82.0625 48.51757812 C55.6625 48.51757812 29.2625 48.51757812 2.0625 48.51757812 Z M98.0625 48.51757812 C98.0625 53.79757813 98.0625 59.07757813 98.0625 64.51757812 C109.6125 64.51757812 121.1625 64.51757812 133.0625 64.51757812 C131.0825 62.20757812 129.1025 59.89757812 127.0625 57.51757812 C126.14597656 56.20466797 126.14597656 56.20466797 125.2109375 54.86523438 C122.50523184 51.37880747 120.21499379 48.87788397 115.69970703 48.12207031 C109.7967288 47.73481244 103.95279464 48.05837325 98.0625 48.51757812 Z M2.0625 80.51757812 C2.0625 85.79757813 2.0625 91.07757813 2.0625 96.51757812 C28.4625 96.51757812 54.8625 96.51757812 82.0625 96.51757812 C82.0625 91.23757812 82.0625 85.95757812 82.0625 80.51757812 C55.6625 80.51757812 29.2625 80.51757812 2.0625 80.51757812 Z " fill="#000101" transform="translate(213.9375,15.482421875)"/>
<path d="M0 0 C1.4217881 -0.01913956 1.4217881 -0.01913956 2.87229919 -0.03866577 C4.40516319 -0.04200424 4.40516319 -0.04200424 5.96899414 -0.04541016 C7.02067276 -0.05206696 8.07235138 -0.05872375 9.15589905 -0.06558228 C11.38093312 -0.07571112 13.60599758 -0.08039922 15.83105469 -0.08007812 C19.23756874 -0.08445137 22.64278752 -0.12076992 26.04907227 -0.15869141 C28.20987512 -0.16455943 30.37068414 -0.16852892 32.53149414 -0.17041016 C33.55137924 -0.18478119 34.57126434 -0.19915222 35.62205505 -0.21395874 C42.51222036 -0.16937779 42.51222036 -0.16937779 45.99072266 1.81933594 C47.87649919 5.33394284 47.98151932 8.44469899 47.31665039 12.29052734 C45.84790039 15.67724609 45.84790039 15.67724609 43.81665039 18.97802734 C43.28394531 19.85998779 43.28394531 19.85998779 42.74047852 20.75976562 C41.61545292 22.61388294 40.46680646 24.45191796 39.31665039 26.29052734 C38.5441985 27.55386204 37.77334878 28.81817783 37.00415039 30.08349609 C35.12669331 33.16406001 33.2277697 36.23070335 31.31665039 39.29052734 C32.55753418 39.3045459 32.55753418 39.3045459 33.82348633 39.31884766 C37.57181454 39.37253054 41.31889201 39.45618444 45.06665039 39.54052734 C46.36860352 39.55470703 47.67055664 39.56888672 49.01196289 39.58349609 C50.26235352 39.61572266 51.51274414 39.64794922 52.80102539 39.68115234 C53.953125 39.70209961 55.10522461 39.72304688 56.29223633 39.74462891 C59.92995558 40.40122725 61.12383392 41.35814321 63.31665039 44.29052734 C64.75384308 52.10098526 61.03967211 56.88958986 56.81665039 63.22802734 C56.1431958 64.27071777 55.46974121 65.3134082 54.77587891 66.38769531 C53.35290328 68.58870907 51.92247632 70.78492114 50.48510742 72.9765625 C47.70540758 77.22466492 44.97743587 81.50467334 42.24951172 85.78613281 C40.24934736 88.9230601 38.24108285 92.05466381 36.23071289 95.18505859 C33.09830855 100.06601523 29.98233063 104.95712074 26.87451172 109.85375977 C24.02843337 114.33686066 21.17401358 118.81461244 18.31665039 123.29052734 C17.40761963 124.71558594 17.40761963 124.71558594 16.48022461 126.16943359 C14.68120927 128.98421305 12.87509336 131.79429804 11.06665039 134.60302734 C10.51726807 135.46387939 9.96788574 136.32473145 9.40185547 137.21166992 C8.89420654 137.99695068 8.38655762 138.78223145 7.86352539 139.59130859 C7.41847656 140.28393799 6.97342773 140.97656738 6.51489258 141.69018555 C5.31665039 143.29052734 5.31665039 143.29052734 3.31665039 144.29052734 C-3.95822629 144.87721095 -3.95822629 144.87721095 -6.78436279 142.59063721 C-9.07332111 139.81818215 -9.1718899 138.61017765 -9.13745117 135.06298828 C-9.13714905 134.0222113 -9.13684692 132.98143433 -9.13653564 131.90911865 C-9.1158905 130.79232727 -9.09524536 129.67553589 -9.07397461 128.52490234 C-9.06831482 127.3763678 -9.06265503 126.22783325 -9.05682373 125.04449463 C-9.03443292 121.3760816 -8.98422902 117.70864518 -8.93334961 114.04052734 C-8.91328822 111.55356228 -8.89503683 109.06658191 -8.87866211 106.57958984 C-8.83455916 100.48290245 -8.7676191 94.38678467 -8.68334961 88.29052734 C-10.28774902 88.32194824 -10.28774902 88.32194824 -11.92456055 88.35400391 C-15.89773134 88.4264736 -19.87084386 88.47235197 -23.84448242 88.51025391 C-25.5633324 88.53035362 -27.28211413 88.55763823 -29.00073242 88.59228516 C-31.4732345 88.64087768 -33.94483171 88.66351169 -36.41772461 88.68115234 C-37.56794098 88.71212006 -37.56794098 88.71212006 -38.74139404 88.74371338 C-42.25240492 88.74518575 -44.28478866 88.58027209 -47.16210938 86.48852539 C-48.98113016 83.86027245 -49.34708489 81.79769485 -49.1730957 78.61523438 C-48.13984886 73.71065988 -45.47536752 69.53055524 -42.99584961 65.22802734 C-42.40787598 64.17655518 -41.81990234 63.12508301 -41.21411133 62.04174805 C-39.38654493 58.78199518 -37.53645446 55.535815 -35.68334961 52.29052734 C-34.60515816 50.37984062 -33.52827832 48.46841301 -32.45288086 46.55615234 C-30.34724881 42.81585481 -28.22929301 39.08287991 -26.10522461 35.35302734 C-23.57537214 30.89524255 -21.09583722 26.41236732 -18.63647461 21.91552734 C-17.95086177 20.66588113 -17.26515267 19.41628773 -16.5793457 18.16674805 C-15.57398981 16.33474812 -14.57112086 14.50161777 -13.57623291 12.66390991 C-12.65740845 10.96695361 -11.72917045 9.27510456 -10.80053711 7.58349609 C-10.27057129 6.60920654 -9.74060547 5.63491699 -9.19458008 4.63110352 C-6.67869999 0.7345377 -4.40466753 0.04026365 0 0 Z " fill="#000000" transform="translate(88.683349609375,223.70947265625)"/>
<path d="M0 0 C1.4217881 -0.01913956 1.4217881 -0.01913956 2.87229919 -0.03866577 C4.40516319 -0.04200424 4.40516319 -0.04200424 5.96899414 -0.04541016 C7.02067276 -0.05206696 8.07235138 -0.05872375 9.15589905 -0.06558228 C11.38093312 -0.07571112 13.60599758 -0.08039922 15.83105469 -0.08007812 C19.23756874 -0.08445137 22.64278752 -0.12076992 26.04907227 -0.15869141 C28.20987512 -0.16455943 30.37068414 -0.16852892 32.53149414 -0.17041016 C33.55137924 -0.18478119 34.57126434 -0.19915222 35.62205505 -0.21395874 C42.51222036 -0.16937779 42.51222036 -0.16937779 45.99072266 1.81933594 C47.87649919 5.33394284 47.98151932 8.44469899 47.31665039 12.29052734 C45.84790039 15.67724609 45.84790039 15.67724609 43.81665039 18.97802734 C43.28394531 19.85998779 43.28394531 19.85998779 42.74047852 20.75976562 C41.61545292 22.61388294 40.46680646 24.45191796 39.31665039 26.29052734 C38.5441985 27.55386204 37.77334878 28.81817783 37.00415039 30.08349609 C35.12669331 33.16406001 33.2277697 36.23070335 31.31665039 39.29052734 C32.55753418 39.3045459 32.55753418 39.3045459 33.82348633 39.31884766 C37.57181454 39.37253054 41.31889201 39.45618444 45.06665039 39.54052734 C46.36860352 39.55470703 47.67055664 39.56888672 49.01196289 39.58349609 C50.26235352 39.61572266 51.51274414 39.64794922 52.80102539 39.68115234 C53.953125 39.70209961 55.10522461 39.72304687 56.29223633 39.74462891 C59.92995558 40.40122725 61.12383392 41.35814321 63.31665039 44.29052734 C64.75384308 52.10098526 61.03967211 56.88958986 56.81665039 63.22802734 C56.1431958 64.27071777 55.46974121 65.3134082 54.77587891 66.38769531 C53.35290328 68.58870907 51.92247632 70.78492114 50.48510742 72.9765625 C47.70540758 77.22466492 44.97743587 81.50467334 42.24951172 85.78613281 C40.24934736 88.9230601 38.24108285 92.05466381 36.23071289 95.18505859 C33.09830855 100.06601523 29.98233063 104.95712074 26.87451172 109.85375977 C24.02843337 114.33686066 21.17401358 118.81461244 18.31665039 123.29052734 C17.40761963 124.71558594 17.40761963 124.71558594 16.48022461 126.16943359 C14.68120927 128.98421305 12.87509336 131.79429804 11.06665039 134.60302734 C10.51726807 135.46387939 9.96788574 136.32473145 9.40185547 137.21166992 C8.89420654 137.99695068 8.38655762 138.78223145 7.86352539 139.59130859 C7.41847656 140.28393799 6.97342773 140.97656738 6.51489258 141.69018555 C5.31665039 143.29052734 5.31665039 143.29052734 3.31665039 144.29052734 C-3.95822629 144.87721095 -3.95822629 144.87721095 -6.78436279 142.59063721 C-9.07332111 139.81818215 -9.1718899 138.61017765 -9.13745117 135.06298828 C-9.13714905 134.0222113 -9.13684692 132.98143433 -9.13653564 131.90911865 C-9.1158905 130.79232727 -9.09524536 129.67553589 -9.07397461 128.52490234 C-9.06831482 127.3763678 -9.06265503 126.22783325 -9.05682373 125.04449463 C-9.03443292 121.3760816 -8.98422902 117.70864518 -8.93334961 114.04052734 C-8.91328822 111.55356228 -8.89503683 109.06658191 -8.87866211 106.57958984 C-8.83455916 100.48290245 -8.7676191 94.38678467 -8.68334961 88.29052734 C-10.28774902 88.32194824 -10.28774902 88.32194824 -11.92456055 88.35400391 C-15.89773134 88.4264736 -19.87084386 88.47235197 -23.84448242 88.51025391 C-25.5633324 88.53035362 -27.28211413 88.55763823 -29.00073242 88.59228516 C-31.4732345 88.64087768 -33.94483171 88.66351169 -36.41772461 88.68115234 C-37.56794098 88.71212006 -37.56794098 88.71212006 -38.74139404 88.74371338 C-42.25240492 88.74518575 -44.28478866 88.58027209 -47.16210938 86.48852539 C-48.98113016 83.86027245 -49.34708489 81.79769485 -49.1730957 78.61523438 C-48.13984886 73.71065988 -45.47536752 69.53055524 -42.99584961 65.22802734 C-42.40787598 64.17655518 -41.81990234 63.12508301 -41.21411133 62.04174805 C-39.38654493 58.78199518 -37.53645446 55.535815 -35.68334961 52.29052734 C-34.60515816 50.37984062 -33.52827832 48.46841301 -32.45288086 46.55615234 C-30.34724881 42.81585481 -28.22929301 39.08287991 -26.10522461 35.35302734 C-23.57537214 30.89524255 -21.09583722 26.41236732 -18.63647461 21.91552734 C-17.95086177 20.66588113 -17.26515267 19.41628773 -16.5793457 18.16674805 C-15.57398981 16.33474812 -14.57112086 14.50161777 -13.57623291 12.66390991 C-12.65740845 10.96695361 -11.72917045 9.27510456 -10.80053711 7.58349609 C-10.27057129 6.60920654 -9.74060547 5.63491699 -9.19458008 4.63110352 C-6.67869999 0.7345377 -4.40466753 0.04026365 0 0 Z " fill="#000000" transform="translate(416.683349609375,175.70947265625)"/>
<path d="M0 0 C100.32 0 200.64 0 304 0 C304 5.28 304 10.56 304 16 C203.68 16 103.36 16 0 16 C0 10.72 0 5.44 0 0 Z " fill="#DD3E46" transform="translate(104,464)"/>
<path d="M0 0 C10.23419363 5.09008122 20.4332558 10.24318267 30.59204102 15.48217773 C32.69660726 16.56719529 34.80236063 17.64988379 36.90820312 18.73242188 C45.32250155 23.06436486 53.68582914 27.47857167 62 32 C62 32.66 62 33.32 62 34 C61.49364014 34.25056152 60.98728027 34.50112305 60.46557617 34.75927734 C51.24080971 39.33071459 42.03773211 43.93457687 32.9375 48.75 C25.39645067 52.73733391 17.85065381 56.71519253 10.28689575 60.65930176 C9.05813206 61.3009248 7.83015842 61.94406322 6.60299683 62.58874512 C4.881871 63.49268557 3.15779286 64.39099798 1.43359375 65.2890625 C0.43384521 65.81193848 -0.56590332 66.33481445 -1.59594727 66.87353516 C-4 68 -4 68 -6 68 C-6.14756554 60.16989044 -5.71837529 52.51569831 -4.94140625 44.7265625 C-4.8327977 43.59979095 -4.72418915 42.47301941 -4.61228943 41.31210327 C-4.38358387 38.95050211 -4.15235503 36.58914406 -3.91870117 34.22802734 C-3.56149363 30.61482042 -3.21273954 27.00087045 -2.86523438 23.38671875 C-2.64111799 21.08328531 -2.41652542 18.77989815 -2.19140625 16.4765625 C-2.08719864 15.39944 -1.98299103 14.3223175 -1.87562561 13.21255493 C-1.77559738 12.20735809 -1.67556915 11.20216125 -1.57250977 10.16650391 C-1.48590591 9.2870108 -1.39930206 8.4075177 -1.31007385 7.50137329 C-0.99583517 4.96640224 -0.53252453 2.4974373 0 0 Z " fill="#CAEBF2" transform="translate(176,373)"/>
<path d="M0 0 C1.68519404 10.76550942 2.83447507 21.55137553 3.85986328 32.39624023 C4.12560187 35.19383629 4.40044283 37.99044374 4.67578125 40.78710938 C5.51978123 49.53436247 6.34642985 58.19939863 6 67 C0.85281475 65.46677425 -3.70431605 63.24411611 -8.44921875 60.78125 C-9.26131302 60.36387573 -10.07340729 59.94650146 -10.91011047 59.51647949 C-13.5046502 58.18164053 -16.096052 56.84082946 -18.6875 55.5 C-20.37806341 54.62983561 -22.06881714 53.76004086 -23.75976562 52.890625 C-33.17510545 48.04324462 -42.56251542 43.14429109 -51.9259491 38.1973877 C-53.03538628 37.61144836 -53.03538628 37.61144836 -54.16723633 37.01367188 C-54.81300125 36.67203003 -55.45876617 36.33038818 -56.12409973 35.97839355 C-58.07170173 34.96260328 -60.03263631 33.97688654 -62 33 C-62 32.34 -62 31.68 -62 31 C-60.97865967 30.47680176 -59.95731934 29.95360352 -58.9050293 29.41455078 C-34.01412367 16.68296118 -34.01412367 16.68296118 -9.24609375 3.71484375 C-8.17488281 3.14894531 -7.10367188 2.58304687 -6 2 C-5.22785156 1.58878906 -4.45570313 1.17757813 -3.66015625 0.75390625 C-2 0 -2 0 0 0 Z " fill="#CAEBF2" transform="translate(336,374)"/>
<path d="M0 0 C7.26 0 14.52 0 22 0 C20.865625 2.000625 19.73125 4.00125 18.5625 6.0625 C17.9893103 7.07582397 17.9893103 7.07582397 17.40454102 8.10961914 C15.49021814 11.47027879 13.52695809 14.7862627 11.46484375 18.05859375 C11.05355225 18.71786865 10.64226074 19.37714355 10.21850586 20.05639648 C9.42178102 21.32722927 8.61437688 22.59144506 7.79516602 23.84790039 C5.3921269 27.70325013 4.19363906 30.4642197 5 35 C7.20255617 37.89921554 8.40275929 38.89219969 12.02441406 39.54589844 C13.17651367 39.5668457 14.32861328 39.58779297 15.515625 39.609375 C16.76601562 39.64160156 18.01640625 39.67382812 19.3046875 39.70703125 C20.60664062 39.72121094 21.90859375 39.73539062 23.25 39.75 C24.56742188 39.77964844 25.88484375 39.80929687 27.2421875 39.83984375 C30.49485343 39.91055388 33.74680193 39.96324786 37 40 C34.36344214 45.47966633 31.48420143 50.56232315 28.125 55.625 C27.15654429 57.1009017 26.18915297 58.57750221 25.22265625 60.0546875 C24.70719238 60.84198242 24.19172852 61.62927734 23.66064453 62.44042969 C21.85644041 65.22127002 20.07975421 68.01831548 18.30859375 70.8203125 C17.68645996 71.80435059 17.06432617 72.78838867 16.42333984 73.80224609 C15.20415153 75.73356067 13.98695395 77.6661337 12.77197266 79.60009766 C11.92771729 80.93500244 11.92771729 80.93500244 11.06640625 82.296875 C10.57084229 83.08416992 10.07527832 83.87146484 9.56469727 84.68261719 C7.83904546 87.23838048 5.95427041 89.61593257 4 92 C3.970271 90.61494263 3.970271 90.61494263 3.93994141 89.2019043 C3.86182261 85.77438826 3.77513003 82.34731202 3.68261719 78.92016602 C3.64434653 77.43717788 3.60949022 75.95409752 3.578125 74.47094727 C3.532432 72.33836928 3.47444662 70.20642509 3.4140625 68.07421875 C3.3826416 66.79119873 3.3512207 65.50817871 3.31884766 64.1862793 C3.23620772 60.84612541 3.23620772 60.84612541 1 58 C-2.3021228 56.8992924 -4.94083279 56.79372928 -8.41796875 56.68359375 C-9.67158203 56.64169922 -10.92519531 56.59980469 -12.21679688 56.55664062 C-13.52712891 56.51732422 -14.83746094 56.47800781 -16.1875 56.4375 C-17.52279978 56.39429008 -18.85808652 56.350675 -20.19335938 56.30664062 C-23.46213297 56.20043498 -26.73098333 56.09839003 -30 56 C-28.67977581 52.54935291 -27.17793551 49.31759724 -25.41796875 46.0703125 C-24.90403564 45.1205957 -24.39010254 44.17087891 -23.8605957 43.19238281 C-23.03241333 41.67402832 -23.03241333 41.67402832 -22.1875 40.125 C-21.33321411 38.55250488 -21.33321411 38.55250488 -20.46166992 36.94824219 C-15.77569087 28.35310756 -10.98496119 19.81905123 -6.1394043 11.31298828 C-5.62547119 10.4104834 -5.11153809 9.50797852 -4.58203125 8.578125 C-4.13061768 7.78825195 -3.6792041 6.99837891 -3.21411133 6.18457031 C-2.08549052 4.15382449 -1.03901044 2.07802089 0 0 Z " fill="#E67223" transform="translate(92,240)"/>
<path d="M0 0 C7.26 0 14.52 0 22 0 C20.865625 2.000625 19.73125 4.00125 18.5625 6.0625 C17.9893103 7.07582397 17.9893103 7.07582397 17.40454102 8.10961914 C15.49021814 11.47027879 13.52695809 14.7862627 11.46484375 18.05859375 C11.05355225 18.71786865 10.64226074 19.37714355 10.21850586 20.05639648 C9.42178102 21.32722927 8.61437688 22.59144506 7.79516602 23.84790039 C5.3921269 27.70325013 4.19363906 30.4642197 5 35 C7.20255617 37.89921554 8.40275929 38.89219969 12.02441406 39.54589844 C13.17651367 39.5668457 14.32861328 39.58779297 15.515625 39.609375 C16.76601563 39.64160156 18.01640625 39.67382812 19.3046875 39.70703125 C20.60664063 39.72121094 21.90859375 39.73539063 23.25 39.75 C24.56742187 39.77964844 25.88484375 39.80929688 27.2421875 39.83984375 C30.49485343 39.91055388 33.74680193 39.96324786 37 40 C34.36344214 45.47966633 31.48420143 50.56232315 28.125 55.625 C27.15654429 57.1009017 26.18915297 58.57750221 25.22265625 60.0546875 C24.70719238 60.84198242 24.19172852 61.62927734 23.66064453 62.44042969 C21.85644041 65.22127002 20.07975421 68.01831548 18.30859375 70.8203125 C17.68645996 71.80435059 17.06432617 72.78838867 16.42333984 73.80224609 C15.20415153 75.73356067 13.98695395 77.6661337 12.77197266 79.60009766 C11.92771729 80.93500244 11.92771729 80.93500244 11.06640625 82.296875 C10.57084229 83.08416992 10.07527832 83.87146484 9.56469727 84.68261719 C7.83904546 87.23838048 5.95427041 89.61593257 4 92 C3.970271 90.61494263 3.970271 90.61494263 3.93994141 89.2019043 C3.86182261 85.77438826 3.77513003 82.34731202 3.68261719 78.92016602 C3.64434653 77.43717788 3.60949022 75.95409752 3.578125 74.47094727 C3.532432 72.33836928 3.47444662 70.20642509 3.4140625 68.07421875 C3.3826416 66.79119873 3.3512207 65.50817871 3.31884766 64.1862793 C3.23620772 60.84612541 3.23620772 60.84612541 1 58 C-2.3021228 56.8992924 -4.94083279 56.79372928 -8.41796875 56.68359375 C-9.67158203 56.64169922 -10.92519531 56.59980469 -12.21679688 56.55664062 C-13.52712891 56.51732422 -14.83746094 56.47800781 -16.1875 56.4375 C-17.52279978 56.39429008 -18.85808652 56.350675 -20.19335938 56.30664062 C-23.46213297 56.20043498 -26.73098333 56.09839003 -30 56 C-28.67977581 52.54935291 -27.17793551 49.31759724 -25.41796875 46.0703125 C-24.90403564 45.1205957 -24.39010254 44.17087891 -23.8605957 43.19238281 C-23.03241333 41.67402832 -23.03241333 41.67402832 -22.1875 40.125 C-21.33321411 38.55250488 -21.33321411 38.55250488 -20.46166992 36.94824219 C-15.77569087 28.35310756 -10.98496119 19.81905123 -6.1394043 11.31298828 C-5.62547119 10.4104834 -5.11153809 9.50797852 -4.58203125 8.578125 C-4.13061768 7.78825195 -3.6792041 6.99837891 -3.21411133 6.18457031 C-2.08549052 4.15382449 -1.03901044 2.07802089 0 0 Z " fill="#E67223" transform="translate(420,192)"/>
<path d="M0 0 C2.40825152 1.15074512 4.77366207 2.3266033 7.13671875 3.5625 C7.81001724 3.9102951 8.48331573 4.25809021 9.17701721 4.61642456 C11.34941954 5.74001686 13.51852018 6.86981714 15.6875 8 C17.1798584 8.7738985 18.67237204 9.54749772 20.16503906 10.32080078 C24.4466298 12.54094332 28.72373686 14.76961794 33 17 C34.09586426 17.57073242 35.19172852 18.14146484 36.32080078 18.72949219 C38.96554397 20.10815858 41.60858225 21.48997483 44.25 22.875 C44.98565186 23.26042969 45.72130371 23.64585937 46.47924805 24.04296875 C50.04992339 25.92655244 53.60933898 27.80526981 57 30 C57 30.33 57 30.66 57 31 C16.08 31 -24.84 31 -67 31 C-61.37989074 26.50391259 -61.37989074 26.50391259 -57.8046875 24.7734375 C-57.01618408 24.38663818 -56.22768066 23.99983887 -55.4152832 23.60131836 C-54.15784302 22.99429077 -54.15784302 22.99429077 -52.875 22.375 C-51.07339897 21.48994803 -49.2726373 20.60318573 -47.47265625 19.71484375 C-46.56016113 19.2647998 -45.64766602 18.81475586 -44.70751953 18.35107422 C-40.54383963 16.27336416 -36.42633579 14.11182821 -32.3125 11.9375 C-31.53801514 11.53160645 -30.76353027 11.12571289 -29.96557617 10.70751953 C-26.02079739 8.63253699 -22.11406204 6.50907168 -18.2421875 4.30078125 C-17.47608154 3.87224854 -16.70997559 3.44371582 -15.9206543 3.00219727 C-14.47242414 2.19013074 -13.0330201 1.36203788 -11.60473633 0.51538086 C-6.83106553 -2.13705327 -4.94352498 -2.01430644 0 0 Z " fill="#CBEBF3" transform="translate(261,417)"/>
<path d="M0 0 C1.92856075 10.01787375 2.90888236 20.09713755 3.85986328 30.24536133 C4.1248379 33.06077767 4.39990618 35.87508641 4.67578125 38.68945312 C5.51881997 47.468052 6.34856106 56.16849554 6 65 C2.21025669 63.57343605 -1.25926779 61.84224358 -4.796875 59.875 C-5.91263916 59.2555249 -7.02840332 58.6360498 -8.17797852 57.99780273 C-9.36878514 57.33210597 -10.55945638 56.666167 -11.75 56 C-12.35270721 55.66396759 -12.95541443 55.32793518 -13.5763855 54.98171997 C-22.89257233 49.78756169 -32.14503539 44.49651269 -41.29296875 39.01074219 C-42.93253867 38.03994421 -44.59098644 37.10124564 -46.25 36.1640625 C-47.178125 35.63554687 -48.10625 35.10703125 -49.0625 34.5625 C-49.83722656 34.13066406 -50.61195313 33.69882812 -51.41015625 33.25390625 C-52.19712891 32.63322266 -52.19712891 32.63322266 -53 32 C-53 31.01 -53 30.02 -53 29 C-52.30777344 28.6189209 -51.61554688 28.2378418 -50.90234375 27.84521484 C-47.59988438 26.02483745 -44.29936862 24.20097111 -41 22.375 C-40.39874298 22.0424118 -39.79748596 21.70982361 -39.17800903 21.36715698 C-29.13792918 15.80722833 -19.20197204 10.09237554 -9.34179688 4.21826172 C-8.40271484 3.66283691 -7.46363281 3.10741211 -6.49609375 2.53515625 C-5.67294678 2.044104 -4.8497998 1.55305176 -4.00170898 1.04711914 C-2 0 -2 0 0 0 Z " fill="#CAEAF2" transform="translate(327,279)"/>
<path d="M0 0 C6.25077915 1.63384615 11.44365917 5.03013299 16.9375 8.3125 C19.07079909 9.57299576 21.20493747 10.832072 23.33984375 12.08984375 C24.43280762 12.73421387 25.52577148 13.37858398 26.65185547 14.04248047 C32.06932649 17.20984832 37.53206149 20.29581194 43 23.375 C44.00281006 23.94001221 45.00562012 24.50502441 46.03881836 25.0871582 C48.35842706 26.39284412 50.678746 27.69724204 53 29 C53 29.99 53 30.98 53 32 C50.77833845 33.55833689 48.61509457 34.87482502 46.25 36.1875 C45.51499268 36.60749268 44.77998535 37.02748535 44.02270508 37.46020508 C42.33183196 38.42488624 40.63798698 39.38436898 38.94189453 40.33984375 C35.63998714 42.20316078 32.34846926 44.08431069 29.05859375 45.96875 C25.42470146 48.04972864 21.79047696 50.13005925 18.15136719 52.2019043 C17.0121582 52.85070557 15.87294922 53.49950684 14.69921875 54.16796875 C13.58853027 54.80009277 12.4778418 55.4322168 11.33349609 56.08349609 C9.06080669 57.39011773 6.79866223 58.70635242 4.54541016 60.04541016 C3.46437012 60.68655762 2.38333008 61.32770508 1.26953125 61.98828125 C0.30249268 62.56747314 -0.6645459 63.14666504 -1.66088867 63.7434082 C-4 65 -4 65 -6 65 C-5.39753329 53.00120164 -4.43129534 41.05994995 -3.27050781 29.1027832 C-2.9966433 26.27787573 -2.72848193 23.4524655 -2.4609375 20.62695312 C-2.28678959 18.80986406 -2.11232242 16.99280555 -1.9375 15.17578125 C-1.85830322 14.34138016 -1.77910645 13.50697906 -1.69750977 12.64729309 C-1.28201908 8.39633398 -0.76511069 4.20599287 0 0 Z " fill="#CAEBF3" transform="translate(185,279)"/>
<path d="M0 0 C0.99257813 0.58136719 1.98515625 1.16273438 3.0078125 1.76171875 C4.14657837 2.39291626 4.14657837 2.39291626 5.30834961 3.03686523 C8.17672538 4.64622413 10.99794024 6.32304387 13.8203125 8.01171875 C20.52032372 11.97930282 27.22960443 15.91855659 34.0390625 19.6953125 C35.74098755 20.63938965 35.74098755 20.63938965 37.47729492 21.60253906 C39.67316333 22.81553466 41.87118336 24.02464492 44.0715332 25.22949219 C45.06757568 25.78024414 46.06361816 26.33099609 47.08984375 26.8984375 C47.96874268 27.38014404 48.8476416 27.86185059 49.75317383 28.3581543 C52.0078125 29.76171875 52.0078125 29.76171875 55.0078125 32.76171875 C17.3878125 32.76171875 -20.2321875 32.76171875 -58.9921875 32.76171875 C-55.36984114 29.86384166 -52.42413522 27.75014008 -48.44140625 25.58203125 C-47.36141357 24.98898193 -46.2814209 24.39593262 -45.16870117 23.78491211 C-44.01732666 23.1585083 -42.86595215 22.53210449 -41.6796875 21.88671875 C-34.40052709 17.91551095 -27.16546404 13.91344383 -20.0859375 9.59375 C-19.00610596 8.93938965 -17.92627441 8.2850293 -16.8137207 7.61083984 C-14.76030211 6.35834568 -12.71666152 5.08964505 -10.68432617 3.80322266 C-3.90191644 -0.31072703 -3.90191644 -0.31072703 0 0 Z " fill="#CBEBF3" transform="translate(257.9921875,319.23828125)"/>
<path d="M0 0 C35.64 0 71.28 0 108 0 C105.4495606 2.5504394 104.09443135 3.63039658 101 5.12890625 C100.20456787 5.51916992 99.40913574 5.90943359 98.58959961 6.31152344 C97.3077478 6.93075684 97.3077478 6.93075684 96 7.5625 C94.18797931 8.45275436 92.37680179 9.34472667 90.56640625 10.23828125 C89.64230957 10.69412598 88.71821289 11.1499707 87.76611328 11.61962891 C83.45796873 13.76951852 79.19548757 16.00278838 74.9375 18.25 C74.14770752 18.66354736 73.35791504 19.07709473 72.54418945 19.50317383 C67.35754468 22.23272719 62.28943814 25.1157248 57.32421875 28.234375 C53.43445633 29.5157085 50.72210684 27.83672206 47.17700195 26.11425781 C45.03815665 25.023232 42.92475496 23.89164296 40.8125 22.75 C39.14257242 21.85686527 37.47195543 20.96501876 35.80078125 20.07421875 C34.8876416 19.58743652 33.97450195 19.1006543 33.03369141 18.59912109 C29.65400123 16.81761693 26.25693678 15.07142374 22.85546875 13.33203125 C21.62586363 12.70155894 20.39629005 12.07102509 19.16674805 11.44042969 C17.34012795 10.5037947 15.51270644 9.56895018 13.68228149 8.63977051 C11.9626243 7.76634062 10.24685915 6.88526084 8.53125 6.00390625 C7.53673828 5.49674072 6.54222656 4.9895752 5.51757812 4.46704102 C3 3 3 3 0 0 Z " fill="#CAEBF3" transform="translate(202,368)"/>
<path d="M0 0 C1.26070313 0.74636719 1.26070313 0.74636719 2.546875 1.5078125 C3.74020803 2.13930256 4.93429414 2.76937048 6.12890625 3.3984375 C7.54127775 4.18091057 8.95128715 4.96765684 10.359375 5.7578125 C11.12258057 6.18457275 11.88578613 6.61133301 12.67211914 7.05102539 C19.63849565 10.96516272 26.56819831 14.94326397 33.484375 18.9453125 C34.53278564 19.54827148 35.58119629 20.15123047 36.66137695 20.77246094 C37.64323975 21.34383789 38.62510254 21.91521484 39.63671875 22.50390625 C40.51191162 23.01107178 41.38710449 23.5182373 42.28881836 24.04077148 C44.546875 25.5078125 44.546875 25.5078125 47.546875 28.5078125 C15.206875 28.5078125 -17.133125 28.5078125 -50.453125 28.5078125 C-47.56692393 25.62161143 -45.16083049 24.05365951 -41.6328125 22.06640625 C-41.06100754 21.74204086 -40.48920258 21.41767548 -39.90007019 21.08348083 C-38.04545832 20.03255552 -36.18709623 18.98850456 -34.328125 17.9453125 C-31.78128466 16.51135288 -29.23586608 15.0748979 -26.69140625 13.63671875 C-26.06493698 13.28307251 -25.43846771 12.92942627 -24.79301453 12.56506348 C-21.14879101 10.49888855 -17.55434709 8.37259457 -13.99609375 6.16015625 C-13.22346191 5.68328369 -12.45083008 5.20641113 -11.65478516 4.71508789 C-10.26617045 3.85025447 -8.88624611 2.97124822 -7.51708984 2.07592773 C-3.1403664 -0.63007351 -3.1403664 -0.63007351 0 0 Z " fill="#CBEBF3" transform="translate(257.453125,227.4921875)"/>
<path d="M0 0 C32.34 0 64.68 0 98 0 C94.44172277 2.84662178 91.54117419 4.95715538 87.640625 7.1015625 C86.61485352 7.6699585 85.58908203 8.23835449 84.53222656 8.82397461 C83.4490918 9.41831299 82.36595703 10.01265137 81.25 10.625 C71.91844235 15.75896371 71.91844235 15.75896371 62.75 21.17578125 C61.98010742 21.64612793 61.21021484 22.11647461 60.41699219 22.60107422 C59.00900397 23.46940765 57.60809329 24.34936189 56.21582031 25.24267578 C51.63389655 28.05748927 51.63389655 28.05748927 48.64990234 27.78686523 C45.57652015 26.87425138 43.06919545 25.57942492 40.2734375 24.0078125 C39.16718018 23.38986816 38.06092285 22.77192383 36.92114258 22.13525391 C35.73891899 21.46547994 34.55687481 20.79538923 33.375 20.125 C32.16649358 19.44538484 30.95775161 18.76618838 29.7487793 18.08740234 C26.15987382 16.06871614 22.57948506 14.03534408 19 12 C17.96987793 11.41605469 16.93975586 10.83210938 15.87841797 10.23046875 C13.18609275 8.70164033 10.4979355 7.16589231 7.8125 5.625 C7.01183105 5.16754395 6.21116211 4.71008789 5.38623047 4.23876953 C3.57336909 3.18874787 1.78347523 2.09919423 0 1 C0 0.67 0 0.34 0 0 Z " fill="#CBEBF3" transform="translate(207,272)"/>
<path d="M0 0 C3.45775056 1.31308443 6.63737461 2.82513471 9.8515625 4.65234375 C11.23976196 5.43895386 11.23976196 5.43895386 12.65600586 6.24145508 C13.63577393 6.8011499 14.61554199 7.36084473 15.625 7.9375 C16.63377197 8.51072998 17.64254395 9.08395996 18.68188477 9.67456055 C28.15132812 15.06433318 37.58404026 20.51742834 47 26 C44.46305214 28.8621281 41.60615405 30.50681521 38.28515625 32.37109375 C37.4394809 32.84930321 37.4394809 32.84930321 36.57672119 33.33717346 C35.36761371 34.02051956 34.15731813 34.70176694 32.94595337 35.38110352 C29.77585535 37.15915678 26.61429961 38.95223627 23.453125 40.74609375 C22.82074417 41.10464447 22.18836334 41.46319519 21.53681946 41.83261108 C14.87952118 45.61792018 8.31767373 49.55751959 1.77954102 53.54467773 C0.64536743 54.23412476 0.64536743 54.23412476 -0.51171875 54.9375 C-1.16615967 55.33839844 -1.82060059 55.73929688 -2.49487305 56.15234375 C-4 57 -4 57 -5 57 C-4.51459547 37.8993318 -2.16404978 18.96664061 0 0 Z " fill="#C9EAF1" transform="translate(193,191)"/>
<path d="M0 0 C4.5691466 40.04591862 4.5691466 40.04591862 5 57 C4.27941406 56.58492187 3.55882812 56.16984375 2.81640625 55.7421875 C-3.11652095 52.33769866 -9.06208464 48.95956818 -15.0390625 45.6328125 C-36.93682179 33.44203456 -36.93682179 33.44203456 -47 27 C-43.95768609 24.61413575 -40.80539567 22.65833522 -37.44921875 20.7421875 C-36.36447266 20.12029541 -35.27972656 19.49840332 -34.16210938 18.85766602 C-33.00392914 18.19673724 -31.84572561 17.53584927 -30.6875 16.875 C-22.45897453 12.16552161 -14.2461952 7.44014607 -6.19018555 2.43896484 C-2.21060194 0 -2.21060194 0 0 0 Z " fill="#C9E9F1" transform="translate(319,191)"/>
<path d="M0 0 C27.06 0 54.12 0 82 0 C79.03934617 2.96065383 76.4908467 4.57531166 72.86328125 6.6171875 C71.96587471 7.12573776 71.96587471 7.12573776 71.05033875 7.64456177 C69.14030275 8.72601312 67.22664488 9.80084083 65.3125 10.875 C63.42128802 11.94057363 61.53090261 13.00757283 59.64157104 14.07647705 C58.42172052 14.76613276 57.20064181 15.45362093 55.978302 16.13885498 C52.69308636 17.99128279 49.5362972 19.95140137 46.41796875 22.0703125 C43 24 43 24 40.63012695 23.80053711 C37.65235213 22.89418571 35.21049909 21.65296321 32.5 20.12109375 C31.45320068 19.53287842 30.40640137 18.94466309 29.32788086 18.33862305 C28.22968018 17.71125244 27.13147949 17.08388184 26 16.4375 C24.88181885 15.80432861 23.7636377 15.17115723 22.61157227 14.51879883 C5.44739481 4.75794433 5.44739481 4.75794433 0 1 C0 0.67 0 0.34 0 0 Z " fill="#CAEBF3" transform="translate(215,184)"/>
<path d="M0 0 C2.01291888 9.96687989 2.57227835 19.86975045 3 30 C-5.55376093 27.75735215 -13.54490676 24.34586045 -21.625 20.8125 C-22.92816407 20.24753604 -24.23154817 19.68307932 -25.53515625 19.11914062 C-28.69265781 17.7519219 -31.84714205 16.37789915 -35 15 C-32.3630818 11.7707176 -28.99272615 10.55280852 -25.21484375 9.08203125 C-24.22950401 8.68886971 -24.22950401 8.68886971 -23.22425842 8.2877655 C-21.83968031 7.73708325 -20.45360758 7.190146 -19.06616211 6.64672852 C-16.9383642 5.81283868 -14.81561906 4.9670132 -12.69335938 4.11914062 C-2.30327903 0 -2.30327903 0 0 0 Z " fill="#C7E7EF" transform="translate(313,132)"/>
<path d="M0 0 C7.7699864 2.1285699 15.13778048 4.95036924 22.5625 8.0625 C23.65369141 8.50916016 24.74488281 8.95582031 25.86914062 9.41601562 C26.90361328 9.84720703 27.93808594 10.27839844 29.00390625 10.72265625 C29.94049072 11.11203369 30.8770752 11.50141113 31.84204102 11.90258789 C34 13 34 13 35 15 C29.9115518 17.14074652 24.82119885 19.27687256 19.72900391 21.40869141 C17.99604661 22.13495421 16.26362191 22.86248918 14.53173828 23.59130859 C12.0459782 24.63712065 9.55835479 25.6783812 7.0703125 26.71875 C6.29317902 27.04685669 5.51604553 27.37496338 4.71536255 27.7130127 C-0.77225659 30 -0.77225659 30 -3 30 C-2.6931438 25.7495727 -2.37854179 21.49975339 -2.0625 17.25 C-1.97548828 16.0434375 -1.88847656 14.836875 -1.79882812 13.59375 C-1.71181641 12.43359375 -1.62480469 11.2734375 -1.53515625 10.078125 C-1.456604 9.00981445 -1.37805176 7.94150391 -1.29711914 6.84082031 C-1.04752353 4.4543827 -0.66220982 2.29954178 0 0 Z " fill="#C8E8F0" transform="translate(199,132)"/>
<path d="M0 0 C1.89369314 0.76251144 3.79106534 1.51592935 5.69140625 2.26171875 C7.64968087 3.0672966 9.60670196 3.87592795 11.5625 4.6875 C12.57119141 5.10322266 13.57988281 5.51894531 14.61914062 5.94726562 C17.0805506 6.96215979 19.54079283 7.97978253 22 9 C22 9.33 22 9.66 22 10 C2.2 10 -17.6 10 -38 10 C-32.92692388 6.19519291 -27.64142537 4.05063926 -21.8125 1.625 C-20.71357422 1.13644531 -19.61464844 0.64789063 -18.48242188 0.14453125 C-11.08470916 -2.91689548 -7.15399197 -3.52912911 0 0 Z " fill="#C8E9F1" transform="translate(264,158)"/>
<path d="M0 0 C14.52 0 29.04 0 44 0 C40.86508447 3.13491553 36.95218302 4.52311584 32.9375 6.3125 C32.11572266 6.71017578 31.29394531 7.10785156 30.44726562 7.51757812 C26.02041649 9.47152177 23.05178284 10.45626766 18.3515625 8.9296875 C16.88838039 8.31580432 15.43696212 7.67297424 14 7 C12.68691165 6.46309488 11.37314175 5.92785263 10.05859375 5.39453125 C8.26615234 4.61142578 8.26615234 4.61142578 6.4375 3.8125 C5.81037109 3.53986328 5.18324219 3.26722656 4.53710938 2.98632812 C3.0232521 2.32762687 1.5113971 1.66432675 0 1 C0 0.67 0 0.34 0 0 Z " fill="#C7E7EE" transform="translate(234,128)"/>
</svg>
