<?xml version="1.0" encoding="UTF-8"?>
<svg version="1.1" xmlns="http://www.w3.org/2000/svg" width="512" height="512">
<path d="M0 0 C0.99 -0.03287109 0.99 -0.03287109 2 -0.06640625 C5.43482912 1.0136865 6.26954568 2.3925527 8 5.5625 C8.4864827 9.67834006 8.37572863 13.73804441 8.25 17.875 C8.23195313 18.99712891 8.21390625 20.11925781 8.1953125 21.27539062 C8.14827856 24.03863447 8.08256317 26.80012698 8 29.5625 C8.57443848 29.54678955 9.14887695 29.5310791 9.74072266 29.51489258 C12.36871309 29.45214487 14.99654537 29.41338494 17.625 29.375 C18.52863281 29.34986328 19.43226563 29.32472656 20.36328125 29.29882812 C27.28903511 29.2229987 31.91309112 30.26409651 37.0078125 35.21484375 C41.32171762 40.57134629 43.09459545 47.39801876 45.15234375 53.86010742 C45.87631474 56.12912055 46.62737835 58.38777546 47.3828125 60.64648438 C47.85838501 62.09843062 48.33239812 63.55088876 48.8046875 65.00390625 C49.02647675 65.67281387 49.24826599 66.3417215 49.47677612 67.03089905 C50.7230979 70.98735362 51.37142634 74.41889165 51 78.5625 C49.3125 81.4375 49.3125 81.4375 47 83.5625 C44.35546875 83.6953125 44.35546875 83.6953125 42 83.5625 C42.40895508 84.73437866 42.40895508 84.73437866 42.82617188 85.92993164 C43.84115139 88.85493778 44.84634619 91.78307983 45.84521484 94.71362305 C46.48966718 96.59483756 47.14513841 98.47226568 47.80078125 100.34960938 C48.20683594 101.54521484 48.61289063 102.74082031 49.03125 103.97265625 C49.40830078 105.06715088 49.78535156 106.16164551 50.17382812 107.28930664 C51.07748347 110.86948018 51.2597144 113.88404505 51 117.5625 C48.96961422 120.42007999 47.77918049 121.38525658 44.35546875 122.1640625 C43.57816406 122.29554687 42.80085937 122.42703125 42 122.5625 C42.27263672 123.34898926 42.54527344 124.13547852 42.82617188 124.94580078 C43.83988018 127.88425523 44.84526528 130.82539249 45.84521484 133.76855469 C46.49074391 135.66037365 47.14569688 137.5489685 47.80078125 139.4375 C48.20683594 140.63632813 48.61289063 141.83515625 49.03125 143.0703125 C49.40830078 144.17004395 49.78535156 145.26977539 50.17382812 146.40283203 C51.35296176 150.91239098 51.66921647 154.18835046 49.609375 158.41796875 C45.68163134 161.64600957 42.15969876 161.10889374 37.25 160.875 C34.1975 160.771875 31.145 160.66875 28 160.5625 C28 166.8325 28 173.1025 28 179.5625 C56.38 179.5625 84.76 179.5625 114 179.5625 C114 173.2925 114 167.0225 114 160.5625 C107.9265162 160.72026457 107.9265162 160.72026457 101.85449219 160.92285156 C98.1066321 160.97201943 95.67746751 160.95599909 92.390625 159.046875 C89.76366502 154.35376673 90.47408915 150.44860753 91.859375 145.48046875 C93.00591142 141.98030298 94.23430721 138.52130012 95.5 135.0625 C95.92925781 133.85851562 96.35851562 132.65453125 96.80078125 131.4140625 C97.85604298 128.45932966 98.92266901 125.50924221 100 122.5625 C99.04867187 122.43101563 98.09734375 122.29953125 97.1171875 122.1640625 C94 121.5625 94 121.5625 92.125 119.9375 C89.61152232 114.63126934 91.14048585 109.27970079 92.96875 103.97265625 C93.37480469 102.77705078 93.78085938 101.58144531 94.19921875 100.34960938 C94.84310547 98.50592773 94.84310547 98.50592773 95.5 96.625 C95.93456913 95.35645351 96.36817195 94.08757556 96.80078125 92.81835938 C97.85774235 89.72968417 98.92438611 86.64471863 100 83.5625 C99.22269531 83.5934375 98.44539062 83.624375 97.64453125 83.65625 C95 83.5625 95 83.5625 92.6875 82.0625 C90.37296408 78.6335579 90.63159605 75.54333901 91 71.5625 C91.67357495 68.92579845 92.3862157 66.50050548 93.30078125 63.95703125 C93.53782272 63.26993576 93.7748642 62.58284027 94.01908875 61.87492371 C94.51853536 60.4351701 95.02388897 58.99745303 95.53491211 57.56176758 C96.31265023 55.37457753 97.07080419 53.18133199 97.82617188 50.98632812 C98.31657676 49.58033397 98.80807603 48.17472095 99.30078125 46.76953125 C99.52590897 46.12047318 99.75103668 45.4714151 99.98298645 44.8026886 C102.41671251 38.00528966 104.68985774 34.24341632 111 30.5625 C113.88265149 29.60161617 115.67662271 29.44579059 118.66796875 29.46484375 C119.56064453 29.46806641 120.45332031 29.47128906 121.37304688 29.47460938 C122.30181641 29.48298828 123.23058594 29.49136719 124.1875 29.5 C125.12787109 29.50451172 126.06824219 29.50902344 127.03710938 29.51367188 C129.35813712 29.52545374 131.67903644 29.54190442 134 29.5625 C133.97905273 28.82612305 133.95810547 28.08974609 133.93652344 27.33105469 C133.85332856 23.99167558 133.80132843 20.65251451 133.75 17.3125 C133.71648437 16.15363281 133.68296875 14.99476562 133.6484375 13.80078125 C133.63554687 12.68574219 133.62265625 11.57070312 133.609375 10.421875 C133.58842773 9.39545898 133.56748047 8.36904297 133.54589844 7.31152344 C134.11683038 3.85523655 135.2940991 2.70986068 138 0.5625 C140 0.03125 140 0.03125 142 0.0625 C142.99 0.04703125 142.99 0.04703125 144 0.03125 C146.93255191 0.8102091 148.09838259 2.22678586 150 4.5625 C150.45410156 7.31152344 150.45410156 7.31152344 150.390625 10.421875 C150.37128906 12.09443359 150.37128906 12.09443359 150.3515625 13.80078125 C150.30128906 15.53908203 150.30128906 15.53908203 150.25 17.3125 C150.23195313 18.48683594 150.21390625 19.66117188 150.1953125 20.87109375 C150.1481912 23.7690534 150.08241305 26.66536418 150 29.5625 C150.56396484 29.54155273 151.12792969 29.52060547 151.70898438 29.49902344 C154.30580249 29.41501499 156.90233362 29.36357771 159.5 29.3125 C160.386875 29.27898438 161.27375 29.24546875 162.1875 29.2109375 C168.26522517 29.12155919 173.11535929 29.7234312 178 33.5625 C183.29331668 39.23619115 185.28869481 47.32300251 187.6496582 54.54394531 C188.31296973 56.56393047 189.00003101 58.57473521 189.68945312 60.5859375 C193.82525868 72.89570439 193.82525868 72.89570439 193 79.5625 C191.3125 82.0625 191.3125 82.0625 189 83.5625 C186.35546875 83.65625 186.35546875 83.65625 184 83.5625 C184.40895508 84.73437866 184.40895508 84.73437866 184.82617188 85.92993164 C185.84115139 88.85493778 186.84634619 91.78307983 187.84521484 94.71362305 C188.48966718 96.59483756 189.14513841 98.47226568 189.80078125 100.34960938 C190.40986328 102.14301758 190.40986328 102.14301758 191.03125 103.97265625 C191.40830078 105.06715088 191.78535156 106.16164551 192.17382812 107.28930664 C193.08155264 110.88560174 193.29775835 113.86781518 193 117.5625 C190.75 120.5 190.75 120.5 188 122.5625 C186.68 122.5625 185.36 122.5625 184 122.5625 C184.40895508 123.68108398 184.40895508 123.68108398 184.82617188 124.82226562 C186.06399621 128.23104342 187.28210864 131.64655245 188.5 135.0625 C188.92925781 136.23554688 189.35851562 137.40859375 189.80078125 138.6171875 C193.96417606 150.38042998 193.96417606 150.38042998 193 156.5625 C191.609375 159.046875 191.609375 159.046875 189 160.5625 C185.72718079 161.02572048 182.54668093 160.93814079 179.25 160.8125 C176.1975 160.73 173.145 160.6475 170 160.5625 C170 166.8325 170 173.1025 170 179.5625 C198.38 179.5625 226.76 179.5625 256 179.5625 C256 173.2925 256 167.0225 256 160.5625 C249.9261064 160.75972405 249.9261064 160.75972405 243.85449219 161.01293945 C239.80356785 161.07936913 237.66652623 161.05070123 234.328125 158.60546875 C230.86191753 150.66377574 235.38438197 141.67357134 238.0625 134 C238.43955078 132.89591797 238.81660156 131.79183594 239.20507812 130.65429688 C240.12852473 127.95409225 241.06029718 125.25708108 242 122.5625 C241.04867188 122.43101563 240.09734375 122.29953125 239.1171875 122.1640625 C236 121.5625 236 121.5625 234.125 119.9375 C231.61152232 114.63126934 233.14048585 109.27970079 234.96875 103.97265625 C235.37480469 102.77705078 235.78085937 101.58144531 236.19921875 100.34960938 C236.84310547 98.50592773 236.84310547 98.50592773 237.5 96.625 C237.93456913 95.35645351 238.36817195 94.08757556 238.80078125 92.81835938 C239.85774235 89.72968417 240.92438611 86.64471863 242 83.5625 C240.83597656 83.62244141 240.83597656 83.62244141 239.6484375 83.68359375 C237 83.5625 237 83.5625 234.625 81.625 C231.38676079 75.52216456 234.15429048 68.67524116 236.0390625 62.40234375 C236.66819686 60.43246864 237.31082193 58.46785454 237.96337891 56.50561523 C238.62282786 54.50658454 239.25114719 52.49940694 239.87890625 50.49023438 C242.61552703 42.01978525 245.63339673 35.05490622 253.29296875 30.0703125 C257.62917441 29.25688287 261.91325714 29.35666586 266.3125 29.4375 C267.24384766 29.44652344 268.17519531 29.45554687 269.13476562 29.46484375 C271.4234436 29.48831737 273.71158672 29.52115271 276 29.5625 C275.97905273 28.86165283 275.95810547 28.16080566 275.93652344 27.4387207 C275.85316952 24.25096081 275.80127861 21.06343048 275.75 17.875 C275.71648437 16.77220703 275.68296875 15.66941406 275.6484375 14.53320312 C275.54999215 6.38685066 275.54999215 6.38685066 277.765625 2.328125 C280.10962552 0.47587284 281.05594554 -0.09775181 284 0 C284.66 -0.00128906 285.32 -0.00257812 286 -0.00390625 C288.91256682 0.82094177 290.09963559 2.23052326 292 4.5625 C292.45410156 7.31152344 292.45410156 7.31152344 292.390625 10.421875 C292.37128906 12.09443359 292.37128906 12.09443359 292.3515625 13.80078125 C292.30128906 15.53908203 292.30128906 15.53908203 292.25 17.3125 C292.23195313 18.48683594 292.21390625 19.66117188 292.1953125 20.87109375 C292.1481912 23.7690534 292.08241305 26.66536418 292 29.5625 C292.59425781 29.53631592 293.18851562 29.51013184 293.80078125 29.4831543 C296.53357742 29.37823065 299.26594858 29.31387971 302 29.25 C302.93457031 29.20810547 303.86914062 29.16621094 304.83203125 29.12304688 C311.35735524 29.00896778 316.16259677 29.96009868 321 34.5625 C324.34341574 38.95574589 326.17267144 43.22571951 327.83203125 48.41015625 C328.07289963 49.14447372 328.31376801 49.8787912 328.56193542 50.63536072 C329.06474719 52.17767824 329.56283654 53.72154263 330.05639648 55.2668457 C330.81302822 57.62664742 331.59204519 59.97824541 332.37304688 62.33007812 C332.86074153 63.83549548 333.34711579 65.34134138 333.83203125 66.84765625 C334.18186821 67.89627586 334.18186821 67.89627586 334.53877258 68.96607971 C335.75827897 72.85264747 336.35208146 75.66496098 335 79.5625 C332.5223288 82.63822977 330.80346099 83.76512872 327 84.5625 C327.27787354 85.37928223 327.55574707 86.19606445 327.84204102 87.03759766 C328.87223452 90.08683189 329.89018067 93.13981286 330.90014648 96.19580078 C331.33868007 97.51447274 331.78197831 98.83157055 332.23022461 100.14697266 C332.87580963 102.04423141 333.5025604 103.94786565 334.12890625 105.8515625 C334.51119385 106.99318848 334.89348145 108.13481445 335.28735352 109.31103516 C336.06135931 112.84245318 335.97372304 115.09561115 335 118.5625 C332.36934825 121.12392407 330.48422817 122.40109061 327 123.5625 C327.27787354 124.38451904 327.55574707 125.20653809 327.84204102 126.0534668 C328.87099856 129.11612359 329.8891325 132.18211003 330.90014648 135.25073242 C331.33922246 136.57605242 331.78253768 137.89997601 332.23022461 139.22241211 C332.87435776 141.12758456 333.50182997 143.03836425 334.12890625 144.94921875 C334.51119385 146.09608154 334.89348145 147.24294434 335.28735352 148.42456055 C336.02129186 151.65625276 335.99263097 153.43463386 335 156.5625 C333.546875 158.859375 333.546875 158.859375 331 160.5625 C327.73101546 161.0442132 324.54489325 160.93807266 321.25 160.8125 C318.1975 160.73 315.145 160.6475 312 160.5625 C312 166.8325 312 173.1025 312 179.5625 C314.19978516 179.53631592 316.39957031 179.51013184 318.66601562 179.4831543 C325.95412312 179.40010888 333.24225214 179.34499825 340.53070831 179.30343914 C344.94748573 179.2774041 349.36377621 179.24211874 353.78027344 179.18530273 C358.04673512 179.13076366 362.31273002 179.10103367 366.57951355 179.08811378 C368.20297081 179.07891296 369.82640405 179.06094574 371.44966125 179.03384972 C387.18107496 178.78182518 387.18107496 178.78182518 392.55175781 183.03414917 C397.45837912 188.21217728 398.60877402 192.89678763 398.53125 199.91015625 C398.5350769 200.68507919 398.53890381 201.46000214 398.54284668 202.25840759 C398.54555274 203.88623362 398.53828353 205.51410411 398.52148438 207.1418457 C398.50002381 209.62224787 398.52134272 212.09976399 398.546875 214.58007812 C398.54423206 216.16927717 398.53910777 217.75847443 398.53125 219.34765625 C398.53934692 220.08218521 398.54744385 220.81671417 398.55578613 221.57350159 C398.44874343 227.49671655 396.45073361 230.98310288 392.4375 235.20703125 C385.85791233 240.55294623 382.08739582 239.5625 373 239.5625 C373 310.1825 373 380.8025 373 453.5625 C377.62 453.5625 382.24 453.5625 387 453.5625 C392.04939802 455.91308184 395.49965922 459.56181844 398 464.5625 C398.13550876 467.26370365 398.21269102 469.93786415 398.23828125 472.640625 C398.246353 473.44481873 398.25442474 474.24901245 398.26274109 475.07757568 C398.27658298 476.7823267 398.28730467 478.48710545 398.29516602 480.19189453 C398.3123421 482.78862744 398.35622084 485.38407476 398.40039062 487.98046875 C398.41052105 489.63801148 398.41903606 491.29556503 398.42578125 492.953125 C398.44328934 493.72521301 398.46079742 494.49730103 398.47883606 495.29278564 C398.45803051 500.51172103 397.41140963 503.40256748 394 507.5625 C388.86358531 512.08743675 385.81200869 512.70946706 379.11815262 512.69672108 C377.8764328 512.70024942 377.8764328 512.70024942 376.60962772 512.70384905 C373.80559585 512.71056347 371.00161006 512.71008009 368.1975708 512.70967102 C366.17896794 512.71296812 364.16036575 512.71669336 362.1417644 512.7208125 C356.57109463 512.73085804 351.00043563 512.73455338 345.42975807 512.73720181 C339.43098108 512.74109729 333.43221268 512.75067611 327.43344116 512.75941467 C313.6205242 512.77826469 299.8076066 512.78843816 285.99468044 512.79687535 C279.17158306 512.80107954 272.34848656 512.80630183 265.52538993 512.81155988 C242.17773212 512.82945121 218.83007407 512.84444817 195.48241043 512.85188007 C194.01619841 512.85235483 192.54998639 512.85283072 191.08377437 512.85330774 C189.99309003 512.8536623 189.99309003 512.8536623 188.88037166 512.85402403 C185.19628944 512.85522525 181.51220722 512.85644069 177.828125 512.85766602 C177.09700241 512.85790617 176.36587981 512.85814632 175.61260199 512.85839374 C151.9019962 512.8662886 128.19144041 512.8897237 104.48085645 512.92222196 C79.42368194 512.95650331 54.36653669 512.97622963 29.30933833 512.97952431 C26.5597488 512.97994187 23.81015928 512.98042143 21.06056976 512.98094749 C20.04500047 512.98113228 20.04500047 512.98113228 19.00891462 512.9813208 C8.10324066 512.98365493 -2.80237533 512.99932671 -13.70802862 513.01978934 C-24.66577224 513.04002384 -35.62345554 513.04520192 -46.58121583 513.03601871 C-52.52012588 513.03145915 -58.45884733 513.03345618 -64.39773178 513.05278015 C-69.8309158 513.07030651 -75.26377217 513.06950013 -80.69695917 513.05388286 C-82.66604147 513.05149071 -84.63514585 513.05591278 -86.60419425 513.06771151 C-89.27479441 513.08272708 -91.94421802 513.07323002 -94.61478806 513.05748463 C-95.38458354 513.06770683 -96.15437903 513.07792904 -96.94750166 513.08846101 C-102.113076 513.02169918 -105.01409355 511.80714221 -109 508.5625 C-113.54838454 503.3994689 -114.17447274 500.2236322 -114.23828125 493.484375 C-114.246353 492.68018127 -114.25442474 491.87598755 -114.26274109 491.04742432 C-114.27658298 489.3426733 -114.28730467 487.63789455 -114.29516602 485.93310547 C-114.3123421 483.33637256 -114.35622084 480.74092524 -114.40039062 478.14453125 C-114.41052105 476.48698852 -114.41903606 474.82943497 -114.42578125 473.171875 C-114.44328934 472.39978699 -114.46079742 471.62769897 -114.47883606 470.83221436 C-114.45803051 465.61327897 -113.41140963 462.72243252 -110 458.5625 C-102.40972452 451.87582874 -101.65269828 453.5625 -89 453.5625 C-89 382.9425 -89 312.3225 -89 239.5625 C-92.63 239.5625 -96.26 239.5625 -100 239.5625 C-106.15233568 237.84791465 -109.37660008 234.60850995 -113 229.5625 C-114.55372856 226.45504288 -114.20489597 223.15129427 -114.23828125 219.73828125 C-114.246353 218.95865524 -114.25442474 218.17902924 -114.26274109 217.3757782 C-114.2765838 215.72230249 -114.28730512 214.06879817 -114.29516602 212.4152832 C-114.31231615 209.90194367 -114.35619048 207.38994148 -114.40039062 204.87695312 C-114.41052345 203.26823881 -114.41903771 201.65951334 -114.42578125 200.05078125 C-114.44328934 199.3057283 -114.46079742 198.56067535 -114.47883606 197.79304504 C-114.45336996 191.57997473 -112.72050458 187.35166697 -108.2878418 182.80712891 C-102.30485391 178.95663416 -96.79805811 178.80948122 -89.8125 178.9375 C-88.74580078 178.91816406 -87.67910156 178.89882812 -86.58007812 178.87890625 C-77.94557636 178.93290564 -77.94557636 178.93290564 -74.76171875 181.9140625 C-73 184.5625 -73 184.5625 -73 187.5625 C-68.38 187.5625 -63.76 187.5625 -59 187.5625 C-58.67 185.9125 -58.34 184.2625 -58 182.5625 C-55.75358903 180.1671323 -54.42881528 179.61390919 -51.15917969 179.22192383 C-50.09086914 179.23763428 -49.02255859 179.25334473 -47.921875 179.26953125 C-46.76171875 179.27919922 -45.6015625 179.28886719 -44.40625 179.29882812 C-43.1996875 179.32396484 -41.993125 179.34910156 -40.75 179.375 C-39.52796875 179.38853516 -38.3059375 179.40207031 -37.046875 179.41601562 C-34.03106179 179.45135719 -31.01547523 179.5051635 -28 179.5625 C-28 173.2925 -28 167.0225 -28 160.5625 C-34.0734838 160.72026457 -34.0734838 160.72026457 -40.14550781 160.92285156 C-46.33960856 161.00411145 -46.33960856 161.00411145 -49.546875 158.859375 C-51.20260901 156.24224705 -51.67512251 154.64164375 -52 151.5625 C-51.28735352 148.42456055 -51.28735352 148.42456055 -50.12890625 144.94921875 C-49.71962891 143.70205078 -49.31035156 142.45488281 -48.88867188 141.16992188 C-48.44687122 139.86319445 -48.00481063 138.55655489 -47.5625 137.25 C-47.12326104 135.92418805 -46.6850981 134.59801911 -46.24804688 133.27148438 C-45.17590213 130.03148653 -44.09289203 126.79554649 -43 123.5625 C-43.94875 123.11132812 -44.8975 122.66015625 -45.875 122.1953125 C-49.49280622 120.30500875 -50.66060789 119.41325231 -52 115.5625 C-51.192238 108.55353982 -48.54829245 101.6744815 -46.375 95 C-46.05015625 93.99130859 -45.7253125 92.98261719 -45.390625 91.94335938 C-44.59735302 89.48188308 -43.80041857 87.0216597 -43 84.5625 C-44.11375 84.15 -45.2275 83.7375 -46.375 83.3125 C-48.78469971 82.42001862 -49.79245423 81.86480801 -51.26245117 79.72363281 C-53.77415429 72.36395191 -48.23553923 61.66030513 -45.85131836 54.74755859 C-45.18536844 52.80628641 -44.54071135 50.85872892 -43.89648438 48.91015625 C-41.21772283 41.08865886 -39.24115859 35.56403212 -32.3671875 30.69921875 C-27.57957147 29.08298178 -23.13768715 29.24255095 -18.125 29.375 C-17.15046875 29.38853516 -16.1759375 29.40207031 -15.171875 29.41601562 C-12.78067137 29.45118038 -10.39063025 29.5003933 -8 29.5625 C-8.0314209 28.45793457 -8.0314209 28.45793457 -8.06347656 27.33105469 C-8.14667144 23.99167558 -8.19867157 20.65251451 -8.25 17.3125 C-8.28351563 16.15363281 -8.31703125 14.99476562 -8.3515625 13.80078125 C-8.37089844 12.12822266 -8.37089844 12.12822266 -8.390625 10.421875 C-8.4220459 8.88225098 -8.4220459 8.88225098 -8.45410156 7.31152344 C-7.68049736 2.62830659 -4.75519402 -0.00928749 0 0 Z " fill="#535353" transform="translate(114,-0.5625)"/>
<path d="M0 0 C0.99 -0.03287109 0.99 -0.03287109 2 -0.06640625 C5.43482912 1.0136865 6.26954568 2.3925527 8 5.5625 C8.4864827 9.67834006 8.37572863 13.73804441 8.25 17.875 C8.23195313 18.99712891 8.21390625 20.11925781 8.1953125 21.27539062 C8.14827856 24.03863447 8.08256317 26.80012698 8 29.5625 C8.57443848 29.54678955 9.14887695 29.5310791 9.74072266 29.51489258 C12.36871309 29.45214487 14.99654537 29.41338494 17.625 29.375 C18.52863281 29.34986328 19.43226563 29.32472656 20.36328125 29.29882812 C27.28903511 29.2229987 31.91309112 30.26409651 37.0078125 35.21484375 C41.32171762 40.57134629 43.09459545 47.39801876 45.15234375 53.86010742 C45.87631474 56.12912055 46.62737835 58.38777546 47.3828125 60.64648438 C47.85838501 62.09843062 48.33239812 63.55088876 48.8046875 65.00390625 C49.02647675 65.67281387 49.24826599 66.3417215 49.47677612 67.03089905 C50.7230979 70.98735362 51.37142634 74.41889165 51 78.5625 C49.3125 81.4375 49.3125 81.4375 47 83.5625 C44.35546875 83.6953125 44.35546875 83.6953125 42 83.5625 C42.40895508 84.73437866 42.40895508 84.73437866 42.82617188 85.92993164 C43.84115139 88.85493778 44.84634619 91.78307983 45.84521484 94.71362305 C46.48966718 96.59483756 47.14513841 98.47226568 47.80078125 100.34960938 C48.20683594 101.54521484 48.61289063 102.74082031 49.03125 103.97265625 C49.40830078 105.06715088 49.78535156 106.16164551 50.17382812 107.28930664 C51.07748347 110.86948018 51.2597144 113.88404505 51 117.5625 C48.96961422 120.42007999 47.77918049 121.38525658 44.35546875 122.1640625 C43.57816406 122.29554687 42.80085937 122.42703125 42 122.5625 C42.27263672 123.34898926 42.54527344 124.13547852 42.82617188 124.94580078 C43.83988018 127.88425523 44.84526528 130.82539249 45.84521484 133.76855469 C46.49074391 135.66037365 47.14569688 137.5489685 47.80078125 139.4375 C48.20683594 140.63632813 48.61289063 141.83515625 49.03125 143.0703125 C49.40830078 144.17004395 49.78535156 145.26977539 50.17382812 146.40283203 C51.35296176 150.91239098 51.66921647 154.18835046 49.609375 158.41796875 C45.68163134 161.64600957 42.15969876 161.10889374 37.25 160.875 C34.1975 160.771875 31.145 160.66875 28 160.5625 C28 166.8325 28 173.1025 28 179.5625 C56.38 179.5625 84.76 179.5625 114 179.5625 C114 173.2925 114 167.0225 114 160.5625 C107.9265162 160.72026457 107.9265162 160.72026457 101.85449219 160.92285156 C98.1066321 160.97201943 95.67746751 160.95599909 92.390625 159.046875 C89.76366502 154.35376673 90.47408915 150.44860753 91.859375 145.48046875 C93.00591142 141.98030298 94.23430721 138.52130012 95.5 135.0625 C95.92925781 133.85851562 96.35851562 132.65453125 96.80078125 131.4140625 C97.85604298 128.45932966 98.92266901 125.50924221 100 122.5625 C99.04867187 122.43101563 98.09734375 122.29953125 97.1171875 122.1640625 C94 121.5625 94 121.5625 92.125 119.9375 C89.61152232 114.63126934 91.14048585 109.27970079 92.96875 103.97265625 C93.37480469 102.77705078 93.78085938 101.58144531 94.19921875 100.34960938 C94.84310547 98.50592773 94.84310547 98.50592773 95.5 96.625 C95.93456913 95.35645351 96.36817195 94.08757556 96.80078125 92.81835938 C97.85774235 89.72968417 98.92438611 86.64471863 100 83.5625 C99.22269531 83.5934375 98.44539062 83.624375 97.64453125 83.65625 C95 83.5625 95 83.5625 92.6875 82.0625 C90.37296408 78.6335579 90.63159605 75.54333901 91 71.5625 C91.67357495 68.92579845 92.3862157 66.50050548 93.30078125 63.95703125 C93.53782272 63.26993576 93.7748642 62.58284027 94.01908875 61.87492371 C94.51853536 60.4351701 95.02388897 58.99745303 95.53491211 57.56176758 C96.31265023 55.37457753 97.07080419 53.18133199 97.82617188 50.98632812 C98.31657676 49.58033397 98.80807603 48.17472095 99.30078125 46.76953125 C99.52590897 46.12047318 99.75103668 45.4714151 99.98298645 44.8026886 C102.41671251 38.00528966 104.68985774 34.24341632 111 30.5625 C113.88265149 29.60161617 115.67662271 29.44579059 118.66796875 29.46484375 C119.56064453 29.46806641 120.45332031 29.47128906 121.37304688 29.47460938 C122.30181641 29.48298828 123.23058594 29.49136719 124.1875 29.5 C125.12787109 29.50451172 126.06824219 29.50902344 127.03710938 29.51367188 C129.35813712 29.52545374 131.67903644 29.54190442 134 29.5625 C133.97905273 28.82612305 133.95810547 28.08974609 133.93652344 27.33105469 C133.85332856 23.99167558 133.80132843 20.65251451 133.75 17.3125 C133.71648437 16.15363281 133.68296875 14.99476562 133.6484375 13.80078125 C133.63554687 12.68574219 133.62265625 11.57070312 133.609375 10.421875 C133.58842773 9.39545898 133.56748047 8.36904297 133.54589844 7.31152344 C134.11683038 3.85523655 135.2940991 2.70986068 138 0.5625 C140 0.03125 140 0.03125 142 0.0625 C142.99 0.04703125 142.99 0.04703125 144 0.03125 C146.93255191 0.8102091 148.09838259 2.22678586 150 4.5625 C150.45410156 7.31152344 150.45410156 7.31152344 150.390625 10.421875 C150.37128906 12.09443359 150.37128906 12.09443359 150.3515625 13.80078125 C150.30128906 15.53908203 150.30128906 15.53908203 150.25 17.3125 C150.23195313 18.48683594 150.21390625 19.66117188 150.1953125 20.87109375 C150.1481912 23.7690534 150.08241305 26.66536418 150 29.5625 C150.56396484 29.54155273 151.12792969 29.52060547 151.70898438 29.49902344 C154.30580249 29.41501499 156.90233362 29.36357771 159.5 29.3125 C160.386875 29.27898438 161.27375 29.24546875 162.1875 29.2109375 C168.26522517 29.12155919 173.11535929 29.7234312 178 33.5625 C183.29331668 39.23619115 185.28869481 47.32300251 187.6496582 54.54394531 C188.31296973 56.56393047 189.00003101 58.57473521 189.68945312 60.5859375 C193.82525868 72.89570439 193.82525868 72.89570439 193 79.5625 C191.3125 82.0625 191.3125 82.0625 189 83.5625 C186.35546875 83.65625 186.35546875 83.65625 184 83.5625 C184.40895508 84.73437866 184.40895508 84.73437866 184.82617188 85.92993164 C185.84115139 88.85493778 186.84634619 91.78307983 187.84521484 94.71362305 C188.48966718 96.59483756 189.14513841 98.47226568 189.80078125 100.34960938 C190.40986328 102.14301758 190.40986328 102.14301758 191.03125 103.97265625 C191.40830078 105.06715088 191.78535156 106.16164551 192.17382812 107.28930664 C193.08155264 110.88560174 193.29775835 113.86781518 193 117.5625 C190.75 120.5 190.75 120.5 188 122.5625 C186.68 122.5625 185.36 122.5625 184 122.5625 C184.40895508 123.68108398 184.40895508 123.68108398 184.82617188 124.82226562 C186.06399621 128.23104342 187.28210864 131.64655245 188.5 135.0625 C188.92925781 136.23554688 189.35851562 137.40859375 189.80078125 138.6171875 C193.96417606 150.38042998 193.96417606 150.38042998 193 156.5625 C191.609375 159.046875 191.609375 159.046875 189 160.5625 C185.72718079 161.02572048 182.54668093 160.93814079 179.25 160.8125 C176.1975 160.73 173.145 160.6475 170 160.5625 C170 166.8325 170 173.1025 170 179.5625 C198.38 179.5625 226.76 179.5625 256 179.5625 C256 173.2925 256 167.0225 256 160.5625 C249.9261064 160.75972405 249.9261064 160.75972405 243.85449219 161.01293945 C239.80356785 161.07936913 237.66652623 161.05070123 234.328125 158.60546875 C230.86191753 150.66377574 235.38438197 141.67357134 238.0625 134 C238.43955078 132.89591797 238.81660156 131.79183594 239.20507812 130.65429688 C240.12852473 127.95409225 241.06029718 125.25708108 242 122.5625 C241.04867188 122.43101563 240.09734375 122.29953125 239.1171875 122.1640625 C236 121.5625 236 121.5625 234.125 119.9375 C231.61152232 114.63126934 233.14048585 109.27970079 234.96875 103.97265625 C235.37480469 102.77705078 235.78085937 101.58144531 236.19921875 100.34960938 C236.84310547 98.50592773 236.84310547 98.50592773 237.5 96.625 C237.93456913 95.35645351 238.36817195 94.08757556 238.80078125 92.81835938 C239.85774235 89.72968417 240.92438611 86.64471863 242 83.5625 C240.83597656 83.62244141 240.83597656 83.62244141 239.6484375 83.68359375 C237 83.5625 237 83.5625 234.625 81.625 C231.38676079 75.52216456 234.15429048 68.67524116 236.0390625 62.40234375 C236.66819686 60.43246864 237.31082193 58.46785454 237.96337891 56.50561523 C238.62282786 54.50658454 239.25114719 52.49940694 239.87890625 50.49023438 C242.61552703 42.01978525 245.63339673 35.05490622 253.29296875 30.0703125 C257.62917441 29.25688287 261.91325714 29.35666586 266.3125 29.4375 C267.24384766 29.44652344 268.17519531 29.45554687 269.13476562 29.46484375 C271.4234436 29.48831737 273.71158672 29.52115271 276 29.5625 C275.97905273 28.86165283 275.95810547 28.16080566 275.93652344 27.4387207 C275.85316952 24.25096081 275.80127861 21.06343048 275.75 17.875 C275.71648437 16.77220703 275.68296875 15.66941406 275.6484375 14.53320312 C275.54999215 6.38685066 275.54999215 6.38685066 277.765625 2.328125 C280.10962552 0.47587284 281.05594554 -0.09775181 284 0 C284.66 -0.00128906 285.32 -0.00257812 286 -0.00390625 C288.91256682 0.82094177 290.09963559 2.23052326 292 4.5625 C292.45410156 7.31152344 292.45410156 7.31152344 292.390625 10.421875 C292.37128906 12.09443359 292.37128906 12.09443359 292.3515625 13.80078125 C292.30128906 15.53908203 292.30128906 15.53908203 292.25 17.3125 C292.23195313 18.48683594 292.21390625 19.66117188 292.1953125 20.87109375 C292.1481912 23.7690534 292.08241305 26.66536418 292 29.5625 C292.59425781 29.53631592 293.18851562 29.51013184 293.80078125 29.4831543 C296.53357742 29.37823065 299.26594858 29.31387971 302 29.25 C302.93457031 29.20810547 303.86914062 29.16621094 304.83203125 29.12304688 C311.35735524 29.00896778 316.16259677 29.96009868 321 34.5625 C324.34341574 38.95574589 326.17267144 43.22571951 327.83203125 48.41015625 C328.07289963 49.14447372 328.31376801 49.8787912 328.56193542 50.63536072 C329.06474719 52.17767824 329.56283654 53.72154263 330.05639648 55.2668457 C330.81302822 57.62664742 331.59204519 59.97824541 332.37304688 62.33007812 C332.86074153 63.83549548 333.34711579 65.34134138 333.83203125 66.84765625 C334.18186821 67.89627586 334.18186821 67.89627586 334.53877258 68.96607971 C335.75827897 72.85264747 336.35208146 75.66496098 335 79.5625 C332.5223288 82.63822977 330.80346099 83.76512872 327 84.5625 C327.27787354 85.37928223 327.55574707 86.19606445 327.84204102 87.03759766 C328.87223452 90.08683189 329.89018067 93.13981286 330.90014648 96.19580078 C331.33868007 97.51447274 331.78197831 98.83157055 332.23022461 100.14697266 C332.87580963 102.04423141 333.5025604 103.94786565 334.12890625 105.8515625 C334.51119385 106.99318848 334.89348145 108.13481445 335.28735352 109.31103516 C336.06135931 112.84245318 335.97372304 115.09561115 335 118.5625 C332.36934825 121.12392407 330.48422817 122.40109061 327 123.5625 C327.27787354 124.38451904 327.55574707 125.20653809 327.84204102 126.0534668 C328.87099856 129.11612359 329.8891325 132.18211003 330.90014648 135.25073242 C331.33922246 136.57605242 331.78253768 137.89997601 332.23022461 139.22241211 C332.87435776 141.12758456 333.50182997 143.03836425 334.12890625 144.94921875 C334.51119385 146.09608154 334.89348145 147.24294434 335.28735352 148.42456055 C336.02129186 151.65625276 335.99263097 153.43463386 335 156.5625 C333.546875 158.859375 333.546875 158.859375 331 160.5625 C327.73101546 161.0442132 324.54489325 160.93807266 321.25 160.8125 C318.1975 160.73 315.145 160.6475 312 160.5625 C312 166.8325 312 173.1025 312 179.5625 C314.19978516 179.53631592 316.39957031 179.51013184 318.66601562 179.4831543 C325.95412312 179.40010888 333.24225214 179.34499825 340.53070831 179.30343914 C344.94748573 179.2774041 349.36377621 179.24211874 353.78027344 179.18530273 C358.04673512 179.13076366 362.31273002 179.10103367 366.57951355 179.08811378 C368.20297081 179.07891296 369.82640405 179.06094574 371.44966125 179.03384972 C387.18107496 178.78182518 387.18107496 178.78182518 392.55175781 183.03414917 C397.45837912 188.21217728 398.60877402 192.89678763 398.53125 199.91015625 C398.5350769 200.68507919 398.53890381 201.46000214 398.54284668 202.25840759 C398.54555274 203.88623362 398.53828353 205.51410411 398.52148438 207.1418457 C398.50002381 209.62224787 398.52134272 212.09976399 398.546875 214.58007812 C398.54423206 216.16927717 398.53910777 217.75847443 398.53125 219.34765625 C398.53934692 220.08218521 398.54744385 220.81671417 398.55578613 221.57350159 C398.44874343 227.49671655 396.45073361 230.98310288 392.4375 235.20703125 C385.85791233 240.55294623 382.08739582 239.5625 373 239.5625 C373 310.1825 373 380.8025 373 453.5625 C377.62 453.5625 382.24 453.5625 387 453.5625 C392.04939802 455.91308184 395.49965922 459.56181844 398 464.5625 C398.13550876 467.26370365 398.21269102 469.93786415 398.23828125 472.640625 C398.246353 473.44481873 398.25442474 474.24901245 398.26274109 475.07757568 C398.27658298 476.7823267 398.28730467 478.48710545 398.29516602 480.19189453 C398.3123421 482.78862744 398.35622084 485.38407476 398.40039062 487.98046875 C398.41052105 489.63801148 398.41903606 491.29556503 398.42578125 492.953125 C398.44328934 493.72521301 398.46079742 494.49730103 398.47883606 495.29278564 C398.45803051 500.51172103 397.41140963 503.40256748 394 507.5625 C388.86358531 512.08743675 385.81200869 512.70946706 379.11815262 512.69672108 C377.8764328 512.70024942 377.8764328 512.70024942 376.60962772 512.70384905 C373.80559585 512.71056347 371.00161006 512.71008009 368.1975708 512.70967102 C366.17896794 512.71296812 364.16036575 512.71669336 362.1417644 512.7208125 C356.57109463 512.73085804 351.00043563 512.73455338 345.42975807 512.73720181 C339.43098108 512.74109729 333.43221268 512.75067611 327.43344116 512.75941467 C313.6205242 512.77826469 299.8076066 512.78843816 285.99468044 512.79687535 C279.17158306 512.80107954 272.34848656 512.80630183 265.52538993 512.81155988 C242.17773212 512.82945121 218.83007407 512.84444817 195.48241043 512.85188007 C194.01619841 512.85235483 192.54998639 512.85283072 191.08377437 512.85330774 C189.99309003 512.8536623 189.99309003 512.8536623 188.88037166 512.85402403 C185.19628944 512.85522525 181.51220722 512.85644069 177.828125 512.85766602 C177.09700241 512.85790617 176.36587981 512.85814632 175.61260199 512.85839374 C151.9019962 512.8662886 128.19144041 512.8897237 104.48085645 512.92222196 C79.42368194 512.95650331 54.36653669 512.97622963 29.30933833 512.97952431 C26.5597488 512.97994187 23.81015928 512.98042143 21.06056976 512.98094749 C20.04500047 512.98113228 20.04500047 512.98113228 19.00891462 512.9813208 C8.10324066 512.98365493 -2.80237533 512.99932671 -13.70802862 513.01978934 C-24.66577224 513.04002384 -35.62345554 513.04520192 -46.58121583 513.03601871 C-52.52012588 513.03145915 -58.45884733 513.03345618 -64.39773178 513.05278015 C-69.8309158 513.07030651 -75.26377217 513.06950013 -80.69695917 513.05388286 C-82.66604147 513.05149071 -84.63514585 513.05591278 -86.60419425 513.06771151 C-89.27479441 513.08272708 -91.94421802 513.07323002 -94.61478806 513.05748463 C-95.38458354 513.06770683 -96.15437903 513.07792904 -96.94750166 513.08846101 C-102.113076 513.02169918 -105.01409355 511.80714221 -109 508.5625 C-113.54838454 503.3994689 -114.17447274 500.2236322 -114.23828125 493.484375 C-114.246353 492.68018127 -114.25442474 491.87598755 -114.26274109 491.04742432 C-114.27658298 489.3426733 -114.28730467 487.63789455 -114.29516602 485.93310547 C-114.3123421 483.33637256 -114.35622084 480.74092524 -114.40039062 478.14453125 C-114.41052105 476.48698852 -114.41903606 474.82943497 -114.42578125 473.171875 C-114.44328934 472.39978699 -114.46079742 471.62769897 -114.47883606 470.83221436 C-114.45803051 465.61327897 -113.41140963 462.72243252 -110 458.5625 C-102.40972452 451.87582874 -101.65269828 453.5625 -89 453.5625 C-89 382.9425 -89 312.3225 -89 239.5625 C-92.63 239.5625 -96.26 239.5625 -100 239.5625 C-106.15233568 237.84791465 -109.37660008 234.60850995 -113 229.5625 C-114.55372856 226.45504288 -114.20489597 223.15129427 -114.23828125 219.73828125 C-114.246353 218.95865524 -114.25442474 218.17902924 -114.26274109 217.3757782 C-114.2765838 215.72230249 -114.28730512 214.06879817 -114.29516602 212.4152832 C-114.31231615 209.90194367 -114.35619048 207.38994148 -114.40039062 204.87695312 C-114.41052345 203.26823881 -114.41903771 201.65951334 -114.42578125 200.05078125 C-114.44328934 199.3057283 -114.46079742 198.56067535 -114.47883606 197.79304504 C-114.45336996 191.57997473 -112.72050458 187.35166697 -108.2878418 182.80712891 C-102.30485391 178.95663416 -96.79805811 178.80948122 -89.8125 178.9375 C-88.74580078 178.91816406 -87.67910156 178.89882812 -86.58007812 178.87890625 C-81.60023021 178.91004976 -78.87439223 178.92782641 -74.765625 181.91015625 C-73 184.5625 -73 184.5625 -72.9375 187.625 C-74.20869478 191.13947969 -74.96035175 192.36232972 -78 194.5625 C-81.41151836 195.20166301 -84.78584246 195.25821675 -88.25 195.3125 C-91.4675 195.395 -94.685 195.4775 -98 195.5625 C-98 204.4725 -98 213.3825 -98 222.5625 C-92.43539665 222.56796844 -92.43539665 222.56796844 -86.75837708 222.57354736 C-52.75460046 222.60880957 -18.75090183 222.66381953 15.25280763 222.74042095 C19.70768197 222.75043864 24.16255668 222.76028273 28.61743164 222.77001953 C29.94778319 222.77293159 29.94778319 222.77293159 31.30501053 222.77590248 C45.67348401 222.80694002 60.04194151 222.82390802 74.4104422 222.83569422 C89.14926375 222.8480967 103.8880013 222.87557764 118.62676984 222.91711307 C127.72446908 222.94227439 136.82202907 222.95561536 145.9197636 222.95392957 C152.1548819 222.95389986 158.38985815 222.96849068 164.62492111 222.99466428 C168.22452796 223.00934031 171.8238435 223.01748772 175.42347527 223.00830269 C179.32365905 222.99851894 183.22332885 223.01948046 187.12345886 223.04351807 C188.83503002 223.03187744 188.83503002 223.03187744 190.58117837 223.02000165 C198.18812565 223.10337095 198.18812565 223.10337095 202.20712757 225.37618637 C204 227.5625 204 227.5625 204.5625 231.0625 C203.90957843 235.12512312 203.16515395 236.05672847 200 238.5625 C197.58282471 239.04351807 197.58282471 239.04351807 194.86425781 239.01660156 C193.33312347 239.01614838 193.33312347 239.01614838 191.77105713 239.01568604 C190.67613953 238.99504089 189.58122192 238.97439575 188.453125 238.953125 C187.3267865 238.94746521 186.200448 238.94180542 185.03997803 238.93597412 C181.44288618 238.91358545 177.84679074 238.86338213 174.25 238.8125 C171.8112123 238.79243833 169.37240899 238.77418698 166.93359375 238.7578125 C160.95538926 238.71371244 154.97776581 238.64677463 149 238.5625 C149.05800781 239.81546875 149.11601562 241.0684375 149.17578125 242.359375 C149.22268478 244.0103794 149.26818431 245.66142411 149.3125 247.3125 C149.35439453 248.1375 149.39628906 248.9625 149.43945312 249.8125 C149.56328282 255.95445298 149.56328282 255.95445298 146.640625 259.109375 C143.68038004 260.73838554 142.30932186 261.24133525 139 260.5625 C137.68 259.2425 136.36 257.9225 135 256.5625 C135 250.6225 135 244.6825 135 238.5625 C92.76 238.5625 50.52 238.5625 7 238.5625 C7 244.1725 7 249.7825 7 255.5625 C2 260.5625 2 260.5625 -0.5625 261.125 C-3.73810981 260.39216697 -4.95272307 259.04847913 -7 256.5625 C-9.68741925 251.1876615 -8 244.57175213 -8 238.5625 C-29.78 238.5625 -51.56 238.5625 -74 238.5625 C-74 309.5125 -74 380.4625 -74 453.5625 C-51.56 453.5625 -29.12 453.5625 -6 453.5625 C-2 455.5625 -2 455.5625 -1 457.5625 C-0.53684211 463.93092105 -0.53684211 463.93092105 -2.375 466.4375 C-6.27930058 469.14047732 -10.0804906 468.73684225 -14.67236328 468.76782227 C-15.56998383 468.77772186 -16.46760437 468.78762146 -17.39242554 468.79782104 C-20.36836075 468.829485 -23.34431194 468.85421281 -26.3203125 468.87890625 C-28.38012107 468.89947155 -30.43992539 468.92046791 -32.49972534 468.94187927 C-37.92812658 468.99714372 -43.35656617 469.0465337 -48.78503418 469.09472656 C-54.32156804 469.14490968 -59.85804601 469.20061237 -65.39453125 469.25585938 C-76.26297492 469.36349445 -87.13146592 469.46441765 -98 469.5625 C-98 478.4725 -98 487.3825 -98 496.5625 C60.4 496.5625 218.8 496.5625 382 496.5625 C382 487.6525 382 478.7425 382 469.5625 C380.13288235 469.56103344 378.26576469 469.55956688 376.34206772 469.55805588 C332.05203573 469.52237835 287.76206951 469.46617263 243.4720972 469.38457905 C238.02452992 469.37456121 232.57696233 469.36471714 227.12939453 469.35498047 C226.04485061 469.3530391 224.96030669 469.35109772 223.8428978 469.34909752 C206.26635096 469.31804958 188.68981719 469.30108908 171.11324808 469.28930578 C153.08723358 469.27690868 135.06128782 469.24943995 117.03531671 469.20788693 C105.90618972 469.18271019 94.7771767 469.16938576 83.64802083 469.17107043 C76.0234171 469.17110011 68.39892971 469.15653224 60.7743713 469.13033572 C56.37087363 469.1156419 51.96761458 469.10752753 47.56409645 469.11669731 C43.53594916 469.12494382 39.5082827 469.11494181 35.480207 469.09016338 C34.01986002 469.08444824 32.55946793 469.08554357 31.09913418 469.09398755 C29.11986701 469.1044552 27.1405116 469.08811486 25.16129684 469.07030869 C24.06010789 469.0687898 22.95891893 469.06727092 21.82436061 469.06570601 C18.31000086 468.43956537 17.12633924 467.38744051 15 464.5625 C14.5 461.0625 14.5 461.0625 15 457.5625 C17.08125553 454.83503483 18.2634102 453.69952948 21.67047191 453.06570601 C22.69875456 453.0672249 23.72703722 453.06874378 24.78647995 453.07030869 C25.97531524 453.06234449 27.16415054 453.0543803 28.38901114 453.04617476 C29.69639125 453.05782613 31.00377136 453.0694775 32.35076904 453.08148193 C33.75253175 453.07973802 35.1542932 453.07623641 36.55604768 453.07112527 C40.41231027 453.06216598 44.26812987 453.07820165 48.124336 453.09823751 C52.28108708 453.11548457 56.43781245 453.10966776 60.59458923 453.10662842 C67.79789923 453.10452931 75.00106449 453.11709703 82.20433807 453.13957977 C92.61908386 453.17206498 103.03375953 453.18250322 113.44855049 453.18753174 C130.34513455 453.19628986 147.24164144 453.22291946 164.13818359 453.26074219 C180.55321879 453.2974489 196.96823292 453.32572136 213.38330078 453.34277344 C214.40516232 453.34384543 215.42702385 453.34491742 216.47985089 453.34602189 C224.47128132 453.3543394 232.46271221 453.36216716 240.45414329 453.36984015 C279.63616635 453.40758627 318.81799628 453.48805667 358 453.5625 C358 382.6125 358 311.6625 358 238.5625 C336.22 238.5625 314.44 238.5625 292 238.5625 C292 243.8425 292 249.1225 292 254.5625 C290 258.5625 290 258.5625 287 260.5625 C280.88487128 260.34410255 280.88487128 260.34410255 278.29296875 258.0546875 C276.36711907 254.34262679 276.67950542 250.92510176 276.8125 246.8125 C276.83280273 245.62333984 276.83280273 245.62333984 276.85351562 244.41015625 C276.88874777 242.46064436 276.94255179 240.51148374 277 238.5625 C276.34489441 238.56916183 275.68978882 238.57582367 275.01483154 238.58268738 C268.20183211 238.64901325 261.38892426 238.6942893 254.57568359 238.72729492 C252.03235143 238.74238936 249.48904533 238.76286688 246.94580078 238.78881836 C243.2919268 238.82517177 239.63839671 238.84221997 235.984375 238.85546875 C234.27637726 238.87869453 234.27637726 238.87869453 232.53387451 238.90238953 C231.47307678 238.90261612 230.41227905 238.90284271 229.31933594 238.90307617 C227.92035065 238.91306892 227.92035065 238.91306892 226.49310303 238.92326355 C223.48238694 238.48759899 222.13040279 237.72056664 220 235.5625 C219.2184466 230.09162621 219.2184466 230.09162621 220 227.5625 C223.79995474 223.82401996 226.28573834 223.06038733 231.56159973 223.04351807 C232.5296845 223.03226619 232.5296845 223.03226619 233.51732653 223.020787 C235.67179315 223.00054762 237.82520356 223.00860423 239.97973633 223.01660156 C241.52726276 223.00786442 243.07478016 222.99737814 244.62228394 222.98527527 C248.8182069 222.95741158 253.01383515 222.95401066 257.2098372 222.95499516 C261.59680169 222.95186636 265.98363339 222.92624886 270.37052917 222.90301514 C278.67540523 222.86244901 286.98020275 222.842113 295.28516263 222.82904124 C304.7410337 222.81317327 314.1967711 222.7747585 323.65256464 222.73444796 C343.10167076 222.65204062 362.55075686 222.59875348 382 222.5625 C382 213.6525 382 204.7425 382 195.5625 C379.75665989 195.56103344 377.51331978 195.55956688 375.20199966 195.55805588 C321.99222882 195.52265159 268.78251231 195.46617999 215.57279147 195.38457905 C209.0286711 195.37456116 202.48455048 195.36471711 195.94042969 195.35498047 C193.98614149 195.35206841 193.98614149 195.35206841 191.99237272 195.34909752 C170.87540213 195.31804628 149.75844242 195.30108816 128.6414533 195.28930578 C106.98584522 195.27691039 85.33029439 195.24944554 63.67472243 195.20788693 C50.30380923 195.18270531 36.93299091 195.16938612 23.56205365 195.17107043 C14.40264973 195.1711001 5.24334272 195.15653952 -3.91602346 195.13033572 C-9.2065757 195.11563629 -14.49692919 195.10753238 -19.78749847 195.11669731 C-24.62610029 195.12493784 -29.46430146 195.11495807 -34.3028436 195.09016338 C-36.05794141 195.08444363 -37.81307675 195.08555048 -39.5681636 195.09398755 C-41.94547453 195.10444112 -44.32141675 195.09053881 -46.6986351 195.07030869 C-47.38762166 195.07921239 -48.07660822 195.0881161 -48.78647316 195.09728962 C-52.08316876 195.04309037 -53.75017902 194.75568784 -56.38992906 192.71435571 C-58.52103411 189.86613925 -59.07277154 188.1283053 -59 184.5625 C-57.35375243 181.93158099 -56.66924585 180.97232003 -54 179.5625 C-49.54949079 178.93684373 -45.17041572 179.0932547 -40.6875 179.25 C-39.46998047 179.27255859 -38.25246094 179.29511719 -36.99804688 179.31835938 C-33.99817071 179.37718048 -30.99892804 179.46685736 -28 179.5625 C-28 173.2925 -28 167.0225 -28 160.5625 C-34.0734838 160.72026457 -34.0734838 160.72026457 -40.14550781 160.92285156 C-46.33960856 161.00411145 -46.33960856 161.00411145 -49.546875 158.859375 C-51.20260901 156.24224705 -51.67512251 154.64164375 -52 151.5625 C-51.28735352 148.42456055 -51.28735352 148.42456055 -50.12890625 144.94921875 C-49.71962891 143.70205078 -49.31035156 142.45488281 -48.88867188 141.16992188 C-48.44687122 139.86319445 -48.00481063 138.55655489 -47.5625 137.25 C-47.12326104 135.92418805 -46.6850981 134.59801911 -46.24804688 133.27148438 C-45.17590213 130.03148653 -44.09289203 126.79554649 -43 123.5625 C-43.94875 123.11132812 -44.8975 122.66015625 -45.875 122.1953125 C-49.49280622 120.30500875 -50.66060789 119.41325231 -52 115.5625 C-51.192238 108.55353982 -48.54829245 101.6744815 -46.375 95 C-46.05015625 93.99130859 -45.7253125 92.98261719 -45.390625 91.94335938 C-44.59735302 89.48188308 -43.80041857 87.0216597 -43 84.5625 C-44.11375 84.15 -45.2275 83.7375 -46.375 83.3125 C-48.78469971 82.42001862 -49.79245423 81.86480801 -51.26245117 79.72363281 C-53.77415429 72.36395191 -48.23553923 61.66030513 -45.85131836 54.74755859 C-45.18536844 52.80628641 -44.54071135 50.85872892 -43.89648438 48.91015625 C-41.21772283 41.08865886 -39.24115859 35.56403212 -32.3671875 30.69921875 C-27.57957147 29.08298178 -23.13768715 29.24255095 -18.125 29.375 C-17.15046875 29.38853516 -16.1759375 29.40207031 -15.171875 29.41601562 C-12.78067137 29.45118038 -10.39063025 29.5003933 -8 29.5625 C-8.0314209 28.45793457 -8.0314209 28.45793457 -8.06347656 27.33105469 C-8.14667144 23.99167558 -8.19867157 20.65251451 -8.25 17.3125 C-8.28351563 16.15363281 -8.31703125 14.99476562 -8.3515625 13.80078125 C-8.37089844 12.12822266 -8.37089844 12.12822266 -8.390625 10.421875 C-8.4220459 8.88225098 -8.4220459 8.88225098 -8.45410156 7.31152344 C-7.68049736 2.62830659 -4.75519402 -0.00928749 0 0 Z " fill="#000000" transform="translate(114,-0.5625)"/>
<path d="M0 0 C7.73500825 4.80446576 11.85421928 12.83567556 16.25537109 20.52786255 C17.72227641 23.09100857 19.20588777 25.6443628 20.68814087 28.19865417 C21.47181921 29.54958811 22.25466539 30.9010051 23.03671265 32.25288391 C27.34635796 39.70012368 31.73007002 47.10286471 36.125 54.5 C36.71770691 55.4987616 36.71770691 55.4987616 37.3223877 56.5177002 C42.65455378 65.50062085 48.04646324 74.44505847 53.48730469 83.36251831 C58.96017704 92.33376028 64.38299276 101.32884391 69.625 110.4375 C70.12378662 111.29819092 70.62257324 112.15888184 71.13647461 113.0456543 C71.58643799 113.83496338 72.03640137 114.62427246 72.5 115.4375 C72.88929688 116.118125 73.27859375 116.79875 73.6796875 117.5 C76.26115773 122.79094725 76.4228207 128.68559265 75.625 134.4375 C72.64897132 141.82093449 68.51970847 146.16708138 61.30305958 149.5145359 C58.32019946 150.54254619 55.98924632 150.69439339 52.83854675 150.70492554 C51.1038488 150.71772049 51.1038488 150.71772049 49.33410645 150.73077393 C48.07424927 150.72986755 46.81439209 150.72896118 45.51635742 150.72802734 C44.16900766 150.73401526 42.82166131 150.74082142 41.47431946 150.74838257 C37.82128391 150.76602429 34.16834212 150.7707372 30.51526809 150.77201414 C28.23050387 150.77343748 25.94576335 150.77771056 23.66100502 150.78300858 C15.68308631 150.80150368 7.70523436 150.80967995 -0.27270508 150.80810547 C-7.6975864 150.8069046 -15.12217677 150.82799727 -22.54698449 150.8595928 C-28.93103548 150.88578685 -35.31499163 150.89647144 -41.6990959 150.89519465 C-45.50781755 150.89468588 -49.31628061 150.90032155 -53.1249485 150.92155075 C-56.70952959 150.9409859 -60.29360687 150.94102219 -63.87820625 150.92651749 C-65.81133605 150.92344604 -67.74446618 150.94006942 -69.67752075 150.95739746 C-78.18822989 150.89610926 -83.4814647 149.71160923 -90.125 144.125 C-95.21171322 138.04920365 -96.82032791 134.25252619 -96.80859375 126.37890625 C-95.57646901 118.02043841 -91.13654808 111.40678992 -86.74188232 104.35562134 C-84.80953356 101.25329289 -82.90127458 98.13620992 -80.9921875 95.01953125 C-80.60249786 94.38417953 -80.21280823 93.74882782 -79.81130981 93.09422302 C-76.01008208 86.87813203 -72.36619159 80.5753262 -68.75 74.25 C-62.74816932 63.77226795 -56.60502123 53.39031806 -50.35546875 43.05859375 C-47.83291638 38.88287208 -45.34372025 34.68986744 -42.88374329 30.47714233 C-41.28093902 27.73452791 -39.66844829 24.99766501 -38.05532837 22.2611084 C-37.27812627 20.93686872 -36.50535779 19.61001534 -35.73739624 18.28039551 C-31.15072359 10.34444147 -27.16451823 3.47721671 -18.80078125 -0.9140625 C-12.71053519 -2.54205098 -5.80907153 -2.60792614 0 0 Z " fill="#010101" transform="translate(266.375,282.5625)"/>
<path d="M0 0 C5.28 0 10.56 0 16 0 C16.66 1.65 17.32 3.3 18 5 C20.92120279 6.4606014 23.85062708 6.14190927 27.05247593 6.13587189 C28.15968446 6.13968582 28.15968446 6.13968582 29.28926083 6.1435768 C31.78819547 6.15095619 34.28708118 6.15117323 36.786026 6.15148926 C38.58545334 6.15533628 40.38487979 6.15962321 42.18430513 6.16431475 C47.1489414 6.17599252 52.11356847 6.18144777 57.07821572 6.18594956 C62.42454151 6.19188391 67.77085497 6.20355503 73.11717224 6.21458435 C82.38688394 6.23295882 91.65659591 6.24779414 100.92631721 6.26036072 C114.33001045 6.27862352 127.73368608 6.30328844 141.13736539 6.32973462 C162.8833193 6.37255841 184.62927805 6.41166707 206.37524414 6.44775391 C208.32901623 6.45099811 208.32901623 6.45099811 210.32225846 6.45430785 C220.89234331 6.47183151 231.46242846 6.48917603 242.03251362 6.50651073 C251.27338487 6.52167269 260.514256 6.53690536 269.75512695 6.55224609 C271.70698579 6.5554844 271.70698579 6.5554844 273.69827611 6.55878812 C295.361819 6.59485064 317.02535302 6.63479986 338.68888372 6.67754889 C352.06605316 6.70375598 365.44321986 6.72640246 378.82040273 6.74453247 C387.97879359 6.75716528 397.13717394 6.77327837 406.29555399 6.79218161 C411.5877135 6.8029766 416.87986277 6.81208157 422.1720314 6.81687737 C427.00840773 6.82128519 431.84475318 6.83019706 436.68111484 6.84282058 C438.43879726 6.84658077 440.19648429 6.84861879 441.95417071 6.84884077 C444.32727234 6.84937577 446.70027957 6.85593756 449.07336521 6.86412811 C449.76966112 6.8628196 450.46595702 6.86151108 451.1833528 6.86016291 C455.88585869 6.88585869 455.88585869 6.88585869 457 8 C457.09983058 9.98757028 457.13080753 11.9786752 457.1328125 13.96875 C457.13410156 15.17917969 457.13539063 16.38960937 457.13671875 17.63671875 C457.13285156 18.91160156 457.12898438 20.18648437 457.125 21.5 C457.12886719 22.77488281 457.13273437 24.04976562 457.13671875 25.36328125 C457.13478516 27.17892578 457.13478516 27.17892578 457.1328125 29.03125 C457.13168457 30.15080078 457.13055664 31.27035156 457.12939453 32.42382812 C457 35 457 35 456 36 C453.98631263 36.0980489 451.96913698 36.12464556 449.95306396 36.12457275 C448.63789291 36.12713577 447.32272186 36.12969879 445.96769714 36.13233948 C444.49636834 36.13026925 443.0250396 36.12814649 441.55371094 36.12597656 C440.01489714 36.12737048 438.47608373 36.12926924 436.93727112 36.13163757 C433.61528973 36.13614389 430.29332073 36.13799086 426.97133636 36.13809967 C421.71907909 36.13923731 416.46689254 36.15205613 411.21466064 36.16766357 C409.88652096 36.17152285 409.88652096 36.17152285 408.53155017 36.1754601 C406.72053014 36.180727 404.90951016 36.18601248 403.09849024 36.19131613 C390.86561688 36.22645884 378.63283032 36.25297827 366.39990234 36.25048828 C358.1558113 36.24890039 349.91196021 36.26492092 341.6679461 36.30119491 C337.3031224 36.31967219 332.93869935 36.32898283 328.57384491 36.31671906 C324.46638297 36.30529116 320.35963814 36.31696463 316.25227165 36.34635353 C314.74503056 36.35300041 313.23772396 36.3511164 311.7305088 36.34005547 C309.67110446 36.32619691 307.61412559 36.34305664 305.55487061 36.36749268 C304.4030064 36.36895924 303.2511422 36.3704258 302.06437302 36.3719368 C298.06536207 37.19156013 296.57335536 38.90948297 294 42 C293.67 42.66 293.34 43.32 293 44 C288.05 44 283.1 44 278 44 C277.34 42.35 276.68 40.7 276 39 C272.72419413 36.81612942 271.79016095 36.74839687 267.99529076 36.74108028 C266.43540336 36.73080709 266.43540336 36.73080709 264.84400308 36.72032636 C263.69781208 36.72294322 262.55162108 36.72556007 261.37069702 36.72825623 C260.15602426 36.72316939 258.9413515 36.71808255 257.68987048 36.71284157 C254.31224695 36.70068672 250.93482572 36.69748582 247.55719423 36.69798481 C243.91709167 36.69635046 240.27702894 36.68322978 236.63694763 36.67144775 C230.32802861 36.65256382 224.01912898 36.64086585 217.710186 36.63390923 C208.58737301 36.62375254 199.4646188 36.60169872 190.34183629 36.57652331 C175.54007766 36.53590756 160.73831343 36.50345227 145.93652344 36.47680664 C145.05026967 36.47520934 144.16401589 36.47361204 143.25090595 36.47196633 C142.36351881 36.47036743 141.47613166 36.46876853 140.561854 36.46712118 C127.97547607 36.44442484 115.38910391 36.41979416 102.80273438 36.39282227 C101.91695026 36.39092612 101.03116615 36.38902997 100.11854009 36.38707637 C85.37063988 36.35534278 70.62275097 36.31959676 55.87486517 36.28178078 C46.77008393 36.25869555 37.66531044 36.23975769 28.56051005 36.22611404 C22.32784298 36.21661366 16.09518887 36.20378819 9.86253379 36.18830519 C6.26146322 36.17950662 2.66040876 36.17242393 -0.94067192 36.16966438 C-4.83535507 36.16666214 -8.72999599 36.15609756 -12.62466431 36.14476013 C-14.35064297 36.14533933 -14.35064297 36.14533933 -16.11148989 36.14593023 C-17.14619933 36.14168918 -18.18090877 36.13744814 -19.24697304 36.13307858 C-20.1471826 36.13150468 -21.04739217 36.12993078 -21.97488081 36.12830919 C-24 36 -24 36 -25 35 C-25.09983058 33.01242972 -25.13080753 31.0213248 -25.1328125 29.03125 C-25.13410156 27.82082031 -25.13539062 26.61039063 -25.13671875 25.36328125 C-25.13285156 24.08839844 -25.12898438 22.81351563 -25.125 21.5 C-25.12886719 20.22511719 -25.13273437 18.95023438 -25.13671875 17.63671875 C-25.13542969 16.42628906 -25.13414063 15.21585938 -25.1328125 13.96875 C-25.13168457 12.84919922 -25.13055664 11.72964844 -25.12939453 10.57617188 C-25 8 -25 8 -24 7 C-22.54755932 6.8795537 -21.08989924 6.82051872 -19.6328125 6.7890625 C-18.74722656 6.76070312 -17.86164062 6.73234375 -16.94921875 6.703125 C-15.07441336 6.65126316 -13.19938389 6.6069266 -11.32421875 6.5703125 C-9.99197266 6.52390625 -9.99197266 6.52390625 -8.6328125 6.4765625 C-7.40908936 6.4468335 -7.40908936 6.4468335 -6.16064453 6.41650391 C-3.50241867 5.90408206 -2.63314873 5.12678938 -1 3 C-0.67 2.01 -0.34 1.02 0 0 Z " fill="#A4A3A4" transform="translate(40,187)"/>
<path d="M0 0 C4.62 0 9.24 0 14 0 C14.99 2.97 14.99 2.97 16 6 C19.25148271 7.08382757 21.61361134 7.12929573 25.0354557 7.13587189 C26.30528474 7.14072963 27.57511379 7.14558738 28.88342249 7.15059233 C30.30058771 7.15097762 31.71775296 7.15127336 33.13491821 7.15148926 C34.63409837 7.15533775 36.13327746 7.15962494 37.63245523 7.16431475 C41.76251715 7.17597555 45.89256802 7.18144378 50.02264309 7.18594956 C54.47255713 7.19189034 58.9224564 7.20355988 63.37236023 7.21458435 C71.08581784 7.23294847 78.79927578 7.24778793 86.5127449 7.26036072 C97.66630067 7.27863274 108.81983534 7.30329735 119.97337441 7.32973462 C138.06948239 7.37254622 156.16559618 7.41165817 174.26171875 7.44775391 C175.88717027 7.45099811 175.88717027 7.45099811 177.5454592 7.45430785 C186.33979577 7.47183245 195.1341327 7.48917817 203.92846966 7.50651073 C211.61865442 7.52167361 219.30883903 7.536906 226.99902344 7.55224609 C228.08194926 7.55440496 229.16487508 7.55656383 230.28061683 7.55878812 C248.31007291 7.59485147 266.33951835 7.63479989 284.36895978 7.67754889 C295.50056526 7.70375264 306.63216744 7.72639994 317.76378904 7.74453247 C325.38409204 7.75716591 333.00438241 7.77327923 340.62467243 7.79218161 C345.02774698 7.80297548 349.43080922 7.81208092 353.83389473 7.81687737 C357.85789856 7.82128595 361.88186531 7.83019908 365.90585153 7.84282058 C367.36808147 7.84658 368.83031696 7.84861874 370.29255171 7.84884077 C372.2671165 7.84937597 374.24167628 7.8565433 376.21622658 7.86412811 C377.31692848 7.86624408 378.41763038 7.86836005 379.55168688 7.87054014 C382 8 382 8 383 9 C383.09983058 10.98757028 383.13080753 12.9786752 383.1328125 14.96875 C383.13410156 16.17917969 383.13539063 17.38960938 383.13671875 18.63671875 C383.13285156 19.91160156 383.12898438 21.18648438 383.125 22.5 C383.12886719 23.77488281 383.13273437 25.04976563 383.13671875 26.36328125 C383.13478516 28.17892578 383.13478516 28.17892578 383.1328125 30.03125 C383.13168457 31.15080078 383.13055664 32.27035156 383.12939453 33.42382812 C383 36 383 36 382 37 C379.45229703 37.09977201 376.93165574 37.13361758 374.38340759 37.12584114 C373.16649717 37.1280213 373.16649717 37.1280213 371.92500269 37.13024551 C369.17125635 37.1339325 366.41756442 37.13040669 363.66381836 37.12698364 C361.68376353 37.1281344 359.70370891 37.12972161 357.72365475 37.13171089 C352.25508354 37.13591049 346.78652965 37.13381069 341.31795835 37.13072467 C335.4310567 37.12847334 329.54415813 37.13194884 323.65725708 37.13470459 C312.78213285 37.13890601 301.90701461 37.13852535 291.03189006 37.13579312 C280.98682545 37.1332817 270.94176287 37.13261893 260.896698 37.13381577 C260.23146541 37.13389215 259.56623282 37.13396854 258.88084166 37.13404724 C256.18072951 37.13435855 253.48061736 37.13467695 250.78050521 37.135007 C225.42977011 37.13806887 200.07903856 37.13528798 174.72830401 37.1299101 C152.18507838 37.12516418 129.6418584 37.12558879 107.09863281 37.13037109 C81.79549987 37.13572088 56.49237007 37.13785176 31.18923664 37.13475883 C28.4939251 37.13443809 25.79861355 37.13412525 23.103302 37.13381577 C22.43960369 37.13373669 21.77590539 37.13365761 21.09209501 37.13357614 C11.05113174 37.13243666 1.01017072 37.13377266 -9.03079224 37.13629532 C-20.44303459 37.13909249 -31.85527005 37.13835682 -43.26751161 37.13301457 C-49.09636327 37.13037643 -54.92520343 37.12937439 -60.75405502 37.13266373 C-66.08082623 37.13562439 -71.4075752 37.13403775 -76.73434436 37.12868617 C-78.67038923 37.127561 -80.60643594 37.12815536 -82.54247963 37.13056196 C-85.15614975 37.13356385 -87.7697417 37.13052367 -90.38340759 37.12584114 C-91.15058054 37.12818231 -91.91775349 37.13052347 -92.70817411 37.13293558 C-97.88584966 37.11415034 -97.88584966 37.11415034 -99 36 C-99.09983058 34.01242972 -99.13080753 32.0213248 -99.1328125 30.03125 C-99.13410156 28.82082031 -99.13539062 27.61039062 -99.13671875 26.36328125 C-99.13285156 25.08839844 -99.12898438 23.81351562 -99.125 22.5 C-99.12886719 21.22511719 -99.13273437 19.95023437 -99.13671875 18.63671875 C-99.13542969 17.42628906 -99.13414063 16.21585937 -99.1328125 14.96875 C-99.13168457 13.84919922 -99.13055664 12.72964844 -99.12939453 11.57617188 C-99 9 -99 9 -98 8 C-95.16087832 7.8800628 -92.34500086 7.82452315 -89.50463867 7.81054688 C-88.16806465 7.79810692 -88.16806465 7.79810692 -86.80448914 7.78541565 C-84.86251318 7.76797231 -82.92051567 7.75281736 -80.97850609 7.73963928 C-77.9066191 7.71867253 -74.83483976 7.69164314 -71.76301575 7.66296387 C-65.23788496 7.60315117 -58.7127042 7.55108003 -52.1875 7.5 C-44.63872254 7.44080314 -37.08999755 7.37846781 -29.54131508 7.30812073 C-26.51235752 7.28152995 -23.48339481 7.26072143 -20.45439148 7.2401123 C-18.59744009 7.22350704 -16.74049106 7.206635 -14.88354492 7.18945312 C-13.61707123 7.1831765 -13.61707123 7.1831765 -12.32501221 7.17677307 C-7.01442291 7.31352449 -7.01442291 7.31352449 -2 6 C-1.34 4.02 -0.68 2.04 0 0 Z " fill="#A7A6A7" transform="translate(114,460)"/>
<path d="M0 0 C4.79932872 3.96500833 7.41515692 8.84403895 10.375 14.25 C11.44160122 16.1562979 12.51071839 18.06118974 13.58203125 19.96484375 C14.14100098 20.9585498 14.6999707 21.95225586 15.27587891 22.97607422 C18.12348902 27.97048074 21.09108154 32.89106339 24.0625 37.8125 C30.32230094 48.19500617 36.52899322 58.60748416 42.7074585 69.0385437 C46.95929016 76.21649122 51.22232832 83.38664515 55.54296875 90.5234375 C56.07562851 91.40470306 56.07562851 91.40470306 56.61904907 92.30377197 C58.28504808 95.05993372 59.95508692 97.81345567 61.6328125 100.5625 C62.50099609 101.99722656 62.50099609 101.99722656 63.38671875 103.4609375 C63.89420654 104.29415527 64.40169434 105.12737305 64.92456055 105.98583984 C66 108 66 108 66 110 C63.03592441 111.48203779 60.37920835 111.11920826 57.07177734 111.11352539 C56.00332329 111.11374443 56.00332329 111.11374443 54.9132843 111.1139679 C52.55413794 111.11327011 50.19507011 111.10548397 47.8359375 111.09765625 C46.20211836 111.0957916 44.56829866 111.09436792 42.93447876 111.09336853 C38.6305182 111.08954709 34.32659129 111.07971998 30.02264404 111.06866455 C25.63228816 111.05844242 21.24192685 111.05386919 16.8515625 111.04882812 C8.23435954 111.03809739 -0.38281604 111.02102543 -9 111 C-8.53184875 110.26457977 -8.06369751 109.52915955 -7.58135986 108.77145386 C-6.65018341 107.30846359 -6.65018341 107.30846359 -5.70019531 105.81591797 C-5.08766907 104.85362274 -4.47514282 103.89132751 -3.84405518 102.89987183 C-1.1389945 98.64602446 1.55705123 94.38652202 4.25 90.125 C4.765625 89.3103125 5.28125 88.495625 5.8125 87.65625 C6.79152661 86.10696563 7.76749725 84.55574397 8.73974609 83.00219727 C9.76327121 81.37609702 10.81159659 79.76562611 11.8671875 78.16015625 C13.59596432 74.8635577 12.92608328 72.50588671 12 69 C8.47844036 66.65229357 6.49228157 66.62330386 2.3125 66.375 C1.13300781 66.30023438 -0.04648437 66.22546875 -1.26171875 66.1484375 C-2.61716797 66.07496094 -2.61716797 66.07496094 -4 66 C-2.93916481 64.16570284 -1.87623455 62.3326173 -0.8125 60.5 C0.13882813 58.85644531 0.13882813 58.85644531 1.109375 57.1796875 C2.64610963 54.59517926 4.2531408 52.11281789 5.9375 49.625 C8.01956048 46.31981488 8.73694473 43.9610779 8 40 C7.06402685 37.98048938 7.06402685 37.98048938 5 37 C1.54250051 36.33323122 1.54250051 36.33323122 -2 37 C-4.83244621 40.10999575 -7.07426247 43.53717585 -9.3125 47.08984375 C-9.91320312 48.03923828 -10.51390625 48.98863281 -11.1328125 49.96679688 C-11.74898437 50.94712891 -12.36515625 51.92746094 -13 52.9375 C-14.22858891 54.88447928 -15.45774024 56.83110379 -16.6875 58.77734375 C-17.54686157 60.14246094 -17.54686157 60.14246094 -18.42358398 61.53515625 C-19.71453145 63.55364867 -21.04261561 65.52951251 -22.41015625 67.49609375 C-24.3911393 70.61602037 -24.55267297 72.36814903 -24 76 C-22.97134504 78.24416057 -22.97134504 78.24416057 -21 80 C-17.81403338 80.70124774 -17.81403338 80.70124774 -14.3125 80.75 C-13.13300781 80.80671875 -11.95351562 80.8634375 -10.73828125 80.921875 C-9.83464844 80.94765625 -8.93101562 80.9734375 -8 81 C-9.09082936 84.23465586 -10.54416715 86.94868496 -12.41796875 89.77734375 C-13.09182617 90.79538086 -13.09182617 90.79538086 -13.77929688 91.83398438 C-14.71994315 93.2390829 -15.67055 94.63756299 -16.63085938 96.02929688 C-19.44434164 100.29639203 -19.44434164 100.29639203 -19.86328125 105.31640625 C-19.25273086 107.21436155 -18.63047649 109.10857052 -18 111 C-25.36897044 111.0252908 -32.73792974 111.04284179 -40.10693359 111.05493164 C-42.61540139 111.05997003 -45.12386624 111.06680084 -47.63232422 111.07543945 C-51.2314527 111.08752661 -54.83054247 111.09323315 -58.4296875 111.09765625 C-60.12035843 111.10539818 -60.12035843 111.10539818 -61.84518433 111.11329651 C-62.88611237 111.11337204 -63.92704041 111.11344757 -64.99951172 111.11352539 C-65.91884491 111.115746 -66.8381781 111.11796661 -67.78536987 111.12025452 C-70 111 -70 111 -72 110 C-70.64439137 106.40374264 -69.03871198 103.13737533 -67.12109375 99.80859375 C-66.53859863 98.79627686 -65.95610352 97.78395996 -65.35595703 96.7409668 C-64.72286621 95.65082275 -64.08977539 94.56067871 -63.4375 93.4375 C-63.10909119 92.86987946 -62.78068237 92.30225891 -62.44232178 91.71743774 C-56.94271147 82.2151554 -51.28513006 72.81427302 -45.56091309 63.4460144 C-40.00572469 54.35298308 -34.56117113 45.20141287 -29.1875 36 C-28.47664795 34.78429248 -27.76571141 33.56863436 -27.0546875 32.35302734 C-26.02071801 30.5850681 -24.98676618 28.81709857 -23.95291138 27.04907227 C-22.96870794 25.36598949 -21.98435544 23.68299388 -21 22 C-20.38624512 20.95021973 -19.77249023 19.90043945 -19.14013672 18.81884766 C-17.4756067 15.97908501 -15.80199232 13.1449158 -14.125 10.3125 C-13.64313232 9.48685547 -13.16126465 8.66121094 -12.66479492 7.81054688 C-12.22111572 7.06482422 -11.77743652 6.31910156 -11.3203125 5.55078125 C-10.75207764 4.58652222 -10.75207764 4.58652222 -10.17236328 3.6027832 C-7.35969578 -0.24252337 -4.45125674 -0.62317594 0 0 Z " fill="#F3E065" transform="translate(259,296)"/>
<path d="M0 0 C159.06 0 318.12 0 482 0 C482 3.3 482 6.6 482 10 C480.26469959 11.73530041 478.02139998 11.12454292 475.70817411 11.13293558 C474.94100116 11.13059442 474.17382821 11.12825325 473.38340759 11.12584114 C472.16649717 11.1280213 472.16649717 11.1280213 470.92500269 11.13024551 C468.17125635 11.1339325 465.41756442 11.13040669 462.66381836 11.12698364 C460.68376353 11.1281344 458.70370891 11.12972161 456.72365475 11.13171089 C451.25508354 11.13591049 445.78652965 11.13381069 440.31795835 11.13072467 C434.4310567 11.12847334 428.54415813 11.13194884 422.65725708 11.13470459 C411.78213285 11.13890601 400.90701461 11.13852535 390.03189006 11.13579312 C379.98682545 11.1332817 369.94176287 11.13261893 359.896698 11.13381577 C359.23146541 11.13389215 358.56623282 11.13396854 357.88084166 11.13404724 C355.18072951 11.13435855 352.48061736 11.13467695 349.78050521 11.135007 C324.42977011 11.13806887 299.07903856 11.13528798 273.72830401 11.1299101 C251.18507838 11.12516418 228.6418584 11.12558879 206.09863281 11.13037109 C180.79549987 11.13572088 155.49237007 11.13785176 130.18923664 11.13475883 C127.4939251 11.13443809 124.79861355 11.13412525 122.103302 11.13381577 C121.43960369 11.13373669 120.77590539 11.13365761 120.09209501 11.13357614 C110.05113174 11.13243666 100.01017072 11.13377266 89.96920776 11.13629532 C78.55696541 11.13909249 67.14472995 11.13835682 55.73248839 11.13301457 C49.90363673 11.13037643 44.07479657 11.12937439 38.24594498 11.13266373 C32.91917377 11.13562439 27.5924248 11.13403775 22.26565564 11.12868617 C20.32961077 11.127561 18.39356406 11.12815536 16.45752037 11.13056196 C13.84385025 11.13356385 11.2302583 11.13052367 8.61659241 11.12584114 C7.84941946 11.12818231 7.08224651 11.13052347 6.29182589 11.13293558 C1.11415034 11.11415034 1.11415034 11.11415034 0 10 C0 6.7 0 3.4 0 0 Z " fill="#808080" transform="translate(15,486)"/>
<path d="M0 0 C0.02688151 1.64574566 0.04634123 3.29161413 0.0625 4.9375 C0.07410156 5.85402344 0.08570313 6.77054688 0.09765625 7.71484375 C0 10 0 10 -1 11 C-3.01368737 11.0980489 -5.03086302 11.12464556 -7.04693604 11.12457275 C-8.36210709 11.12713577 -9.67727814 11.12969879 -11.03230286 11.13233948 C-12.50363166 11.13026925 -13.9749604 11.12814649 -15.44628906 11.12597656 C-16.98510286 11.12737048 -18.52391627 11.12926924 -20.06272888 11.13163757 C-23.38471027 11.13614389 -26.70667927 11.13799086 -30.02866364 11.13809967 C-35.28092091 11.13923731 -40.53310746 11.15205613 -45.78533936 11.16766357 C-47.11347904 11.17152285 -47.11347904 11.17152285 -48.46844983 11.1754601 C-50.27946986 11.180727 -52.09048984 11.18601248 -53.90150976 11.19131613 C-66.13438312 11.22645884 -78.36716968 11.25297827 -90.60009766 11.25048828 C-98.8441887 11.24890039 -107.08803979 11.26492092 -115.3320539 11.30119491 C-119.6968776 11.31967219 -124.06130065 11.32898283 -128.42615509 11.31671906 C-132.53361703 11.30529116 -136.64036186 11.31696463 -140.74772835 11.34635353 C-142.25496944 11.35300041 -143.76227604 11.3511164 -145.2694912 11.34005547 C-147.32889554 11.32619691 -149.38587441 11.34305664 -151.44512939 11.36749268 C-152.5969936 11.36895924 -153.7488578 11.3704258 -154.93562698 11.3719368 C-158.93463793 12.19156013 -160.42664464 13.90948297 -163 17 C-163.33 17.66 -163.66 18.32 -164 19 C-168.95 19 -173.9 19 -179 19 C-179.66 17.35 -180.32 15.7 -181 14 C-184.27580587 11.81612942 -185.20983905 11.74839687 -189.00470924 11.74108028 C-190.56459664 11.73080709 -190.56459664 11.73080709 -192.15599692 11.72032636 C-193.30218792 11.72294322 -194.44837892 11.72556007 -195.62930298 11.72825623 C-196.84397574 11.72316939 -198.0586485 11.71808255 -199.31012952 11.71284157 C-202.68775305 11.70068672 -206.06517428 11.69748582 -209.44280577 11.69798481 C-213.08290833 11.69635046 -216.72297106 11.68322978 -220.36305237 11.67144775 C-226.67197139 11.65256382 -232.98087102 11.64086585 -239.289814 11.63390923 C-248.41262699 11.62375254 -257.5353812 11.60169872 -266.65816371 11.57652331 C-281.45992234 11.53590756 -296.26168657 11.50345227 -311.06347656 11.47680664 C-311.94973033 11.47520934 -312.83598411 11.47361204 -313.74909405 11.47196633 C-314.63648119 11.47036743 -315.52386834 11.46876853 -316.438146 11.46712118 C-329.02452393 11.44442484 -341.61089609 11.41979416 -354.19726562 11.39282227 C-355.08304974 11.39092612 -355.96883385 11.38902997 -356.88145991 11.38707637 C-371.62936012 11.35534278 -386.37724903 11.31959676 -401.12513483 11.28178078 C-410.22991607 11.25869555 -419.33468956 11.23975769 -428.43948995 11.22611404 C-434.67215702 11.21661366 -440.90481113 11.20378819 -447.13746621 11.18830519 C-450.73853678 11.17950662 -454.33959124 11.17242393 -457.94067192 11.16966438 C-461.83535507 11.16666214 -465.72999599 11.15609756 -469.62466431 11.14476013 C-471.35064297 11.14533933 -471.35064297 11.14533933 -473.11148989 11.14593023 C-474.14619933 11.14168918 -475.18090877 11.13744814 -476.24697304 11.13307858 C-477.1471826 11.13150468 -478.04739217 11.12993078 -478.97488081 11.12830919 C-481 11 -481 11 -482 10 C-482.07179964 8.48071962 -482.08392007 6.95832518 -482.0625 5.4375 C-482.05347656 4.61121094 -482.04445313 3.78492188 -482.03515625 2.93359375 C-482.02355469 2.29550781 -482.01195312 1.65742188 -482 1 C-436.15705873 0.90465686 -390.31411745 0.80931619 -344.47117615 0.71398926 C-343.4542576 0.71187465 -343.4542576 0.71187465 -342.41679524 0.70971733 C-327.6849946 0.67908366 -312.95319396 0.64845046 -298.22139332 0.61781773 C-290.99744906 0.60279654 -283.7735048 0.58777525 -276.54956055 0.57275391 C-275.83067197 0.57125906 -275.11178339 0.56976422 -274.37111032 0.56822408 C-251.04872974 0.51972793 -227.72634919 0.47122504 -204.40396864 0.42271865 C-180.44726267 0.37289302 -156.4905567 0.32307417 -132.5338507 0.2732639 C-129.15404131 0.26623667 -125.77423192 0.25920936 -122.39442253 0.25218201 C-121.72919457 0.25079886 -121.06396661 0.24941571 -120.37858023 0.24799064 C-110.31404313 0.22706414 -100.24950603 0.20613164 -90.18496895 0.18519592 C-78.74525658 0.16139969 -67.3055442 0.13761033 -55.8658318 0.11383021 C-50.02281407 0.1016839 -44.17979635 0.08953413 -38.33677864 0.07737541 C-32.99702268 0.066264 -27.65726671 0.05516201 -22.31751072 0.0440678 C-20.37672513 0.04003379 -18.43593955 0.03599619 -16.49515397 0.03195482 C-13.8751037 0.0264995 -11.2550534 0.02105673 -8.63500309 0.01561737 C-7.86593995 0.01401303 -7.0968768 0.01240868 -6.30450872 0.01075572 C-1.1141458 0 -1.1141458 0 0 0 Z " fill="#808080" transform="translate(497,212)"/>
<path d="M0 0 C3.5625 0.4375 3.5625 0.4375 6 2.0625 C8.10629474 5.264068 8.04968174 6.6139933 7.5625 10.4375 C6.01216701 13.71236069 4.09148395 16.71133149 2.125 19.75 C1.3505957 20.98459961 1.3505957 20.98459961 0.56054688 22.24414062 C-3.18814523 28.18814523 -3.18814523 28.18814523 -4.4375 29.4375 C-3.62925781 29.45167969 -2.82101562 29.46585937 -1.98828125 29.48046875 C6.67327216 29.86705195 6.67327216 29.86705195 10.875 32.5625 C12.64818103 35.58347508 12.84933761 36.91474107 12.25561523 40.30566406 C10.71083499 45.05699238 7.68062613 49.1184127 4.9375 53.25 C4.33292969 54.18392578 3.72835937 55.11785156 3.10546875 56.08007812 C-0.94045814 62.29562253 -5.17276798 68.37088827 -9.4375 74.4375 C-8.5001149 74.43527939 -7.5627298 74.43305878 -6.59693909 74.43077087 C2.21771785 74.41053857 11.0323701 74.39552744 19.84704494 74.38568783 C24.37924094 74.38045922 28.91141827 74.37336199 33.44360352 74.36206055 C37.8137283 74.35123086 42.18383508 74.34522299 46.55397224 74.34262276 C48.22500963 74.34076865 49.89604597 74.33714832 51.56707573 74.33176994 C53.89947551 74.32455841 56.23179993 74.3235091 58.56420898 74.32397461 C59.2619191 74.32037933 59.95962921 74.31678406 60.67848206 74.31307983 C65.44844784 74.32344784 65.44844784 74.32344784 66.5625 75.4375 C67.2552431 81.55673073 67.2552431 81.55673073 64.83363342 84.63562012 C59.68587312 87.47122617 54.63291424 86.99348179 48.84936523 86.95507812 C47.55783539 86.9620874 46.26630554 86.96909668 44.93563843 86.97631836 C41.40050143 86.99452616 37.86583228 86.98749558 34.33068728 86.97480202 C30.62897925 86.96466314 26.92731083 86.97406995 23.2256012 86.98034668 C17.01076068 86.98761962 10.79611044 86.97804384 4.58129883 86.95898438 C-2.60284774 86.93720655 -9.78654039 86.94427471 -16.970676 86.96629 C-23.14152841 86.98444277 -29.31224419 86.98700327 -35.48311466 86.97653532 C-39.16760159 86.97030087 -42.85187514 86.96946339 -46.53634834 86.98268127 C-50.64242567 86.99638342 -54.74772034 86.97739234 -58.85375977 86.95507812 C-60.07517166 86.96317505 -61.29658356 86.97127197 -62.55500793 86.97961426 C-63.67236328 86.96833496 -64.78971863 86.95705566 -65.94093323 86.94543457 C-66.9115397 86.94392647 -67.88214617 86.94241837 -68.88216496 86.94086456 C-72.20806344 86.28570999 -73.40743014 85.11169341 -75.4375 82.4375 C-75.6875 78.6875 -75.6875 78.6875 -75.4375 75.4375 C-72.27374993 74.49469325 -69.50385075 74.34381758 -66.20996094 74.41577148 C-65.16918396 74.43586777 -64.12840698 74.45596405 -63.05609131 74.47666931 C-61.93929993 74.50370438 -60.82250854 74.53073944 -59.671875 74.55859375 C-58.52334045 74.58220474 -57.37480591 74.60581573 -56.19146729 74.63014221 C-52.52335034 74.70671073 -48.85544812 74.79076487 -45.1875 74.875 C-42.70053134 74.92822747 -40.2135522 74.98096783 -37.7265625 75.03320312 C-31.6300755 75.16231674 -25.53374796 75.29757656 -19.4375 75.4375 C-19.93185547 74.66954102 -20.42621094 73.90158203 -20.93554688 73.11035156 C-22.4375 70.4375 -22.4375 70.4375 -22.46875 67.671875 C-21.02717318 63.15056587 -18.59485813 59.58986722 -15.9375 55.6875 C-14.92649573 54.1722669 -13.91605173 52.65665978 -12.90625 51.140625 C-12.45701172 50.47708008 -12.00777344 49.81353516 -11.54492188 49.12988281 C-10.38418963 47.42715062 -10.38418963 47.42715062 -9.4375 45.4375 C-10.32953125 45.49550781 -11.2215625 45.55351562 -12.140625 45.61328125 C-13.31109375 45.65839844 -14.4815625 45.70351563 -15.6875 45.75 C-16.84765625 45.80800781 -18.0078125 45.86601562 -19.203125 45.92578125 C-22.4375 45.4375 -22.4375 45.4375 -24.859375 43.29296875 C-26.77760039 39.82212034 -27.1232137 38.35038378 -26.4375 34.4375 C-25.04496103 31.59059846 -23.30387612 29.03814749 -21.5 26.4375 C-20.49038975 24.93522883 -19.48128315 23.43261907 -18.47265625 21.9296875 C-17.70912842 20.80578613 -17.70912842 20.80578613 -16.93017578 19.65917969 C-14.69780735 16.33655085 -12.57087305 12.94917894 -10.4375 9.5625 C-4.78720873 0.60928111 -4.78720873 0.60928111 0 0 Z " fill="#FCC038" transform="translate(260.4375,331.5625)"/>
<path d="M0 0 C0.33 0 0.66 0 1 0 C1.28875 1.134375 1.5775 2.26875 1.875 3.4375 C2.24625 4.613125 2.6175 5.78875 3 7 C5.50934299 8.2546715 7.28377355 8.15873558 10.09228516 8.20532227 C11.15323395 8.22526749 12.21418274 8.24521271 13.30728149 8.26576233 C14.45626923 8.28247482 15.60525696 8.29918732 16.7890625 8.31640625 C18.54940323 8.3475779 18.54940323 8.3475779 20.3453064 8.37937927 C24.10514304 8.44491983 27.86505122 8.50378076 31.625 8.5625 C34.16927832 8.60568092 36.71354933 8.64929507 39.2578125 8.69335938 C45.50513447 8.80060586 51.7525286 8.90186061 58 9 C58 13.95 58 18.9 58 24 C57.505 22.02 57.505 22.02 57 20 C15.42 20 -26.16 20 -69 20 C-69 21.65 -69 23.3 -69 25 C-69.33 25 -69.66 25 -70 25 C-70 19.72 -70 14.44 -70 9 C-67.70615356 8.97812622 -67.70615356 8.97812622 -65.3659668 8.95581055 C-59.70215249 8.8979184 -54.03873956 8.8206848 -48.37524414 8.73754883 C-45.92218531 8.70425674 -43.46904909 8.6762383 -41.01586914 8.65356445 C-37.49331622 8.62009771 -33.97147535 8.56778485 -30.44921875 8.51171875 C-29.34913986 8.50532883 -28.24906097 8.4989389 -27.11564636 8.49235535 C-26.09481461 8.47256119 -25.07398285 8.45276703 -24.0222168 8.43237305 C-23.12286911 8.42126999 -22.22352142 8.41016693 -21.29692078 8.39872742 C-18.5314858 7.91866961 -17.66983575 7.22064545 -16 5 C-15.67 4.01 -15.34 3.02 -15 2 C-10.05 2 -5.1 2 0 2 C0 1.34 0 0.68 0 0 Z " fill="#464646" transform="translate(333,229)"/>
<path d="M0 0 C3.5625 0.4375 3.5625 0.4375 6 2.0625 C8.10629474 5.264068 8.04968174 6.6139933 7.5625 10.4375 C6.01216701 13.71236069 4.09148395 16.71133149 2.125 19.75 C1.60873047 20.57306641 1.09246094 21.39613281 0.56054688 22.24414062 C-3.18814523 28.18814523 -3.18814523 28.18814523 -4.4375 29.4375 C-3.62925781 29.45167969 -2.82101562 29.46585937 -1.98828125 29.48046875 C6.67327216 29.86705195 6.67327216 29.86705195 10.875 32.5625 C12.64818103 35.58347508 12.84933761 36.91474107 12.25561523 40.30566406 C10.71083499 45.05699238 7.68062613 49.1184127 4.9375 53.25 C4.33292969 54.18392578 3.72835938 55.11785156 3.10546875 56.08007812 C1.28134097 58.88238956 -0.57057289 61.66354198 -2.4375 64.4375 C-3.07010742 65.38028809 -3.70271484 66.32307617 -4.35449219 67.29443359 C-4.96711914 68.1911377 -5.57974609 69.0878418 -6.2109375 70.01171875 C-6.75927246 70.81569092 -7.30760742 71.61966309 -7.87255859 72.44799805 C-9.87381002 74.99217868 -11.62698744 76.26686578 -14.8125 76.9375 C-17.4375 76.4375 -17.4375 76.4375 -20.3125 73.8125 C-22.4375 70.4375 -22.4375 70.4375 -22.4140625 67.7734375 C-21.06373006 63.16070188 -18.62615874 59.63583261 -15.9375 55.6875 C-14.92649573 54.1722669 -13.91605173 52.65665978 -12.90625 51.140625 C-12.45701172 50.47708008 -12.00777344 49.81353516 -11.54492188 49.12988281 C-10.38418963 47.42715062 -10.38418963 47.42715062 -9.4375 45.4375 C-10.32953125 45.49550781 -11.2215625 45.55351562 -12.140625 45.61328125 C-13.31109375 45.65839844 -14.4815625 45.70351563 -15.6875 45.75 C-16.84765625 45.80800781 -18.0078125 45.86601562 -19.203125 45.92578125 C-22.4375 45.4375 -22.4375 45.4375 -24.859375 43.29296875 C-26.77760039 39.82212034 -27.1232137 38.35038378 -26.4375 34.4375 C-25.04496103 31.59059846 -23.30387612 29.03814749 -21.5 26.4375 C-20.49038975 24.93522883 -19.48128315 23.43261907 -18.47265625 21.9296875 C-17.9636377 21.18041992 -17.45461914 20.43115234 -16.93017578 19.65917969 C-14.69780735 16.33655085 -12.57087305 12.94917894 -10.4375 9.5625 C-4.78720873 0.60928111 -4.78720873 0.60928111 0 0 Z " fill="#040401" transform="translate(260.4375,331.5625)"/>
<path d="M0 0 C42.24 0 84.48 0 128 0 C128 5.28 128 10.56 128 16 C127.67 16 127.34 16 127 16 C127 14.35 127 12.7 127 11 C85.42 11 43.84 11 1 11 C0.67 12.32 0.34 13.64 0 15 C0 10.05 0 5.1 0 0 Z " fill="#464646" transform="translate(121,238)"/>
<path d="M0 0 C0.95116196 -0.00953201 1.90232391 -0.01906403 2.88230896 -0.02888489 C4.42762047 -0.02751778 4.42762047 -0.02751778 6.00415039 -0.02612305 C7.05961563 -0.03040817 8.11508087 -0.0346933 9.20252991 -0.03910828 C11.43774701 -0.04485885 13.67298282 -0.04534651 15.90820312 -0.04101562 C19.3343897 -0.03785785 22.75971145 -0.06129885 26.18579102 -0.08666992 C28.35440971 -0.08894299 30.52303074 -0.08964638 32.69165039 -0.08862305 C33.71983383 -0.09783279 34.74801727 -0.10704254 35.80735779 -0.11653137 C37.23882896 -0.10718819 37.23882896 -0.10718819 38.69921875 -0.09765625 C39.53923935 -0.09828568 40.37925995 -0.0989151 41.24473572 -0.0995636 C43.90957841 0.36008592 44.76085523 1.17894325 46.41430664 3.2746582 C47.30566406 5.2199707 47.30566406 5.2199707 48.01977539 7.3996582 C48.28081055 8.18856445 48.5418457 8.9774707 48.81079102 9.7902832 C49.07182617 10.61012695 49.33286133 11.4299707 49.60180664 12.2746582 C49.87444336 13.09450195 50.14708008 13.9143457 50.42797852 14.7590332 C52.41430664 20.85243076 52.41430664 20.85243076 52.41430664 24.2746582 C30.96430664 24.2746582 9.51430664 24.2746582 -12.58569336 24.2746582 C-11.4587361 16.3859574 -11.4587361 16.3859574 -10.46459961 13.38012695 C-10.14458984 12.41236328 -10.14458984 12.41236328 -9.81811523 11.42504883 C-9.48650391 10.45341797 -9.48650391 10.45341797 -9.14819336 9.4621582 C-8.93098633 8.79506836 -8.7137793 8.12797852 -8.48999023 7.44067383 C-6.69435019 2.0968922 -5.75610346 0.03160132 0 0 Z " fill="#515151" transform="translate(378.585693359375,120.725341796875)"/>
<path d="M0 0 C0.95116196 -0.00953201 1.90232391 -0.01906403 2.88230896 -0.02888489 C4.42762047 -0.02751778 4.42762047 -0.02751778 6.00415039 -0.02612305 C7.05961563 -0.03040817 8.11508087 -0.0346933 9.20252991 -0.03910828 C11.43774701 -0.04485885 13.67298282 -0.04534651 15.90820312 -0.04101562 C19.3343897 -0.03785785 22.75971145 -0.06129885 26.18579102 -0.08666992 C28.35440971 -0.08894299 30.52303074 -0.08964638 32.69165039 -0.08862305 C33.71983383 -0.09783279 34.74801727 -0.10704254 35.80735779 -0.11653137 C37.23882896 -0.10718819 37.23882896 -0.10718819 38.69921875 -0.09765625 C39.53923935 -0.09828568 40.37925995 -0.0989151 41.24473572 -0.0995636 C43.90957841 0.36008592 44.76085523 1.17894325 46.41430664 3.2746582 C47.30566406 5.2199707 47.30566406 5.2199707 48.01977539 7.3996582 C48.28081055 8.18856445 48.5418457 8.9774707 48.81079102 9.7902832 C49.07182617 10.61012695 49.33286133 11.4299707 49.60180664 12.2746582 C49.87444336 13.09450195 50.14708008 13.9143457 50.42797852 14.7590332 C52.41430664 20.85243076 52.41430664 20.85243076 52.41430664 24.2746582 C30.96430664 24.2746582 9.51430664 24.2746582 -12.58569336 24.2746582 C-11.4587361 16.3859574 -11.4587361 16.3859574 -10.46459961 13.38012695 C-10.14458984 12.41236328 -10.14458984 12.41236328 -9.81811523 11.42504883 C-9.48650391 10.45341797 -9.48650391 10.45341797 -9.14819336 9.4621582 C-8.93098633 8.79506836 -8.7137793 8.12797852 -8.48999023 7.44067383 C-6.69435019 2.0968922 -5.75610346 0.03160132 0 0 Z " fill="#525252" transform="translate(378.585693359375,43.725341796875)"/>
<path d="M0 0 C1.45688736 -0.01925285 1.45688736 -0.01925285 2.94320679 -0.03889465 C4.00044952 -0.04628159 5.05769226 -0.05366852 6.14697266 -0.0612793 C7.22604889 -0.06935104 8.30512512 -0.07742279 9.41690063 -0.08573914 C11.70516341 -0.09959806 13.99344701 -0.11031208 16.28173828 -0.11816406 C19.78929584 -0.13539128 23.29591476 -0.17926384 26.80322266 -0.22338867 C29.0219657 -0.23351365 31.24071678 -0.24203036 33.45947266 -0.2487793 C35.03926407 -0.27504143 35.03926407 -0.27504143 36.65097046 -0.30183411 C38.1173143 -0.29744576 38.1173143 -0.29744576 39.61328125 -0.29296875 C40.9044838 -0.30176811 40.9044838 -0.30176811 42.22177124 -0.31074524 C44.43603516 0.17700195 44.43603516 0.17700195 46.15078735 1.97200012 C48.02798784 5.19257011 49.05946834 8.62796943 50.12353516 12.17700195 C50.34847656 12.88856445 50.57341797 13.60012695 50.80517578 14.33325195 C51.86770233 17.79534454 52.43603516 20.52406735 52.43603516 24.17700195 C30.98603516 24.17700195 9.53603516 24.17700195 -12.56396484 24.17700195 C-11.25987685 18.30860598 -10.02335953 13.22966796 -8.00146484 7.67700195 C-7.56705078 6.47043945 -7.13263672 5.26387695 -6.68505859 4.02075195 C-5.01543036 -0.21440259 -4.36972817 0.05006516 0 0 Z " fill="#4C4C4C" transform="translate(93.56396484375,43.822998046875)"/>
<path d="M0 0 C0.95116196 -0.01283524 1.90232391 -0.02567047 2.88230896 -0.03889465 C3.91251663 -0.04628159 4.9427243 -0.05366852 6.00415039 -0.0612793 C7.05961563 -0.06935104 8.11508087 -0.07742279 9.20252991 -0.08573914 C11.43773757 -0.09958381 13.67296641 -0.11030424 15.90820312 -0.11816406 C19.33446948 -0.13541078 22.75977955 -0.17929808 26.18579102 -0.22338867 C28.35440369 -0.23351232 30.52302459 -0.24202944 32.69165039 -0.2487793 C33.71983383 -0.26628738 34.74801727 -0.28379547 35.80735779 -0.30183411 C36.76167191 -0.29890854 37.71598602 -0.29598297 38.69921875 -0.29296875 C39.95924965 -0.30176811 39.95924965 -0.30176811 41.24473572 -0.31074524 C43.41430664 0.17700195 43.41430664 0.17700195 45.12232971 1.97200012 C47.00798713 5.19022946 48.03721898 8.62623224 49.10180664 12.17700195 C49.32674805 12.88856445 49.55168945 13.60012695 49.78344727 14.33325195 C50.84597382 17.79534454 51.41430664 20.52406735 51.41430664 24.17700195 C29.96430664 24.17700195 8.51430664 24.17700195 -13.58569336 24.17700195 C-12.29101944 18.35096933 -11.05990935 13.21443704 -9.08569336 7.67700195 C-8.66288086 6.47043945 -8.24006836 5.26387695 -7.80444336 4.02075195 C-5.99562905 -0.19981477 -4.26309304 0.05000658 0 0 Z " fill="#4C4C4C" transform="translate(94.585693359375,120.822998046875)"/>
<path d="M0 0 C0.95116196 -0.0159874 1.90232391 -0.03197479 2.88230896 -0.04844666 C4.42762047 -0.05649071 4.42762047 -0.05649071 6.00415039 -0.06469727 C7.05961563 -0.07372574 8.11508087 -0.08275421 9.20252991 -0.09205627 C11.43772535 -0.10658226 13.67296353 -0.11545132 15.90820312 -0.11914062 C19.33479097 -0.1310444 22.75958317 -0.18021518 26.18579102 -0.23071289 C28.35440199 -0.24017564 30.52302406 -0.24741138 32.69165039 -0.25219727 C33.71983383 -0.27172958 34.74801727 -0.2912619 35.80735779 -0.31138611 C38.43661922 -0.29464116 40.84153733 -0.2352284 43.41430664 0.30639648 C45.48413086 2.58276367 45.48413086 2.58276367 46.41430664 5.30639648 C46.70845459 5.99822021 47.00260254 6.69004395 47.30566406 7.40283203 C47.65914917 8.41277222 47.65914917 8.41277222 48.01977539 9.44311523 C48.28081055 10.1849707 48.5418457 10.92682617 48.81079102 11.69116211 C49.07182617 12.45106445 49.33286133 13.2109668 49.60180664 13.99389648 C49.87444336 14.76540039 50.14708008 15.5369043 50.42797852 16.33178711 C52.41430664 22.03190165 52.41430664 22.03190165 52.41430664 24.30639648 C30.63430664 24.30639648 8.85430664 24.30639648 -13.58569336 24.30639648 C-7.53297023 0.09550395 -7.53297023 0.09550395 0 0 Z " fill="#525252" transform="translate(236.585693359375,43.693603515625)"/>
<path d="M0 0 C0.95116196 -0.0127597 1.90232391 -0.02551941 2.88230896 -0.03866577 C4.42762047 -0.04200424 4.42762047 -0.04200424 6.00415039 -0.04541016 C7.58734825 -0.05539536 7.58734825 -0.05539536 9.20252991 -0.06558228 C11.43773654 -0.07572058 13.67297352 -0.08039893 15.90820312 -0.08007812 C19.3345712 -0.08445066 22.7596511 -0.1207573 26.18579102 -0.15869141 C28.35440639 -0.16455932 30.5230279 -0.16852888 32.69165039 -0.17041016 C33.71983383 -0.18478119 34.74801727 -0.19915222 35.80735779 -0.21395874 C36.76167191 -0.20780548 37.71598602 -0.20165222 38.69921875 -0.1953125 C39.53923935 -0.19816254 40.37925995 -0.20101257 41.24473572 -0.20394897 C43.41430664 0.29052734 43.41430664 0.29052734 45.15328979 2.19122314 C46.41647427 4.29413595 47.25806385 6.21971605 48.01977539 8.54833984 C48.28081055 9.33853516 48.5418457 10.12873047 48.81079102 10.94287109 C49.07182617 11.75884766 49.33286133 12.57482422 49.60180664 13.41552734 C49.87444336 14.23923828 50.14708008 15.06294922 50.42797852 15.91162109 C52.41430664 21.99506212 52.41430664 21.99506212 52.41430664 24.29052734 C30.63430664 24.29052734 8.85430664 24.29052734 -13.58569336 24.29052734 C-10.15775218 11.7214097 -10.15775218 11.7214097 -8.52319336 7.22802734 C-8.04172852 5.8803125 -8.04172852 5.8803125 -7.55053711 4.50537109 C-5.7784325 0.43742245 -4.18857151 0.03804936 0 0 Z " fill="#525252" transform="translate(236.585693359375,120.70947265625)"/>
<path d="M0 0 C0.99127899 -0.01606293 1.98255798 -0.03212585 3.00387573 -0.04867554 C7.54164096 -0.09292968 12.07925721 -0.13418506 16.6171875 -0.15722656 C19.01507256 -0.17380405 21.41290785 -0.20111726 23.81054688 -0.23925781 C27.25693553 -0.29384185 30.70216392 -0.31587229 34.14892578 -0.33056641 C35.22399384 -0.35323578 36.29906189 -0.37590515 37.40670776 -0.39926147 C40.14283205 -0.39144453 42.66140081 -0.34384921 45.34423828 0.19287109 C47.45727539 2.49658203 47.45727539 2.49658203 48.34423828 5.19287109 C49.03066406 7.00658203 49.03066406 7.00658203 49.73095703 8.85693359 C50.17080837 10.17517463 50.60430841 11.49555028 51.03173828 12.81787109 C51.25667969 13.48560547 51.48162109 14.15333984 51.71337891 14.84130859 C52.66879878 17.74532036 53.34423828 20.11552723 53.34423828 23.19287109 C31.89423828 23.19287109 10.44423828 23.19287109 -11.65576172 23.19287109 C-10.52982982 15.31134782 -10.52982982 15.31134782 -9.49951172 12.26318359 C-9.28166016 11.61349609 -9.06380859 10.96380859 -8.83935547 10.29443359 C-8.61376953 9.64216797 -8.38818359 8.98990234 -8.15576172 8.31787109 C-7.93017578 7.64240234 -7.70458984 6.96693359 -7.47216797 6.27099609 C-5.37078662 0.07875994 -5.37078662 0.07875994 0 0 Z " fill="#535353" transform="translate(377.65576171875,82.80712890625)"/>
<path d="M0 0 C0.97118271 -0.0127597 1.94236542 -0.02551941 2.94297791 -0.03866577 C3.99505936 -0.04089142 5.04714081 -0.04311707 6.13110352 -0.04541016 C7.74759544 -0.05539536 7.74759544 -0.05539536 9.39674377 -0.06558228 C11.67902923 -0.07572095 13.96134439 -0.08039892 16.24365234 -0.08007812 C19.74243832 -0.0844507 23.23996285 -0.12075726 26.73852539 -0.15869141 C28.95271377 -0.1645593 31.16690816 -0.16852888 33.38110352 -0.17041016 C34.43116074 -0.18478119 35.48121796 -0.19915222 36.56309509 -0.21395874 C38.0245974 -0.20472885 38.0245974 -0.20472885 39.515625 -0.1953125 C40.37341049 -0.19816254 41.23119598 -0.20101257 42.11497498 -0.20394897 C44.32250977 0.29052734 44.32250977 0.29052734 46.03627014 2.10018921 C47.83982093 5.1714568 48.92606311 8.41752115 50.01000977 11.79052734 C50.23495117 12.45439453 50.45989258 13.11826172 50.69165039 13.80224609 C51.79873952 17.17398868 52.32250977 19.70058994 52.32250977 23.29052734 C30.87250977 23.29052734 9.42250977 23.29052734 -12.67749023 23.29052734 C-10.39028397 12.99809915 -10.39028397 12.99809915 -8.67749023 7.85302734 C-8.34749023 6.84369141 -8.01749023 5.83435547 -7.67749023 4.79443359 C-5.95166635 0.47313238 -4.39787085 0.0391225 0 0 Z " fill="#535353" transform="translate(93.677490234375,82.70947265625)"/>
<path d="M0 0 C0.88602402 0.00222061 1.77204803 0.00444122 2.68492126 0.00672913 C3.68588333 0.00680466 4.6868454 0.00688019 5.71813965 0.00695801 C6.80666733 0.01211929 7.89519501 0.01728058 9.01670837 0.02259827 C10.67928932 0.02472069 10.67928932 0.02472069 12.37545776 0.02688599 C15.93168281 0.03250418 19.48784596 0.04505977 23.04405212 0.05775452 C25.44834809 0.06276717 27.85264504 0.06733048 30.25694275 0.07142639 C36.16516716 0.08247952 42.07335522 0.09923535 47.98155212 0.12025452 C48.62714154 1.56426312 49.27182478 3.00867689 49.91612244 4.45326233 C50.27522705 5.2575769 50.63433167 6.06189148 51.00431824 6.89057922 C52.01221713 9.19022037 52.92678735 11.49172751 53.73155212 13.87025452 C53.97389587 14.56634827 54.21623962 15.26244202 54.46592712 15.97962952 C54.98155212 18.12025452 54.98155212 18.12025452 54.98155212 23.12025452 C33.86155212 23.12025452 12.74155212 23.12025452 -9.01844788 23.12025452 C-8.27434134 17.16740225 -7.53169828 13.1197011 -5.51844788 7.68275452 C-5.07501038 6.46716858 -4.63157288 5.25158264 -4.17469788 3.99916077 C-2.63148855 0.15677808 -2.63148855 0.15677808 0 0 Z " fill="#535353" transform="translate(233.01844787597656,82.87974548339844)"/>
<path d="M0 0 C21.78 0 43.56 0 66 0 C66 70.95 66 141.9 66 215 C65.67 215 65.34 215 65 215 C65 147.68 65 80.36 65 11 C43.55 11 22.1 11 0 11 C0 7.37 0 3.74 0 0 Z " fill="#404040" transform="translate(406,238)"/>
<path d="M0 0 C21.78 0 43.56 0 66 0 C66 3.63 66 7.26 66 11 C44.55 11 23.1 11 1 11 C1 78.32 1 145.64 1 215 C0.67 215 0.34 215 0 215 C0 144.05 0 73.1 0 0 Z " fill="#404040" transform="translate(40,238)"/>
<path d="M0 0 C2 3 2 3 4 12 C-17.45 12 -38.9 12 -61 12 C-59.875 4.125 -59.875 4.125 -59 1 C-51.3422703 0.79998898 -43.68429812 0.6162468 -36.02569008 0.45341206 C-32.46967451 0.37729078 -28.91397449 0.29551749 -25.35839844 0.20092773 C-21.27304813 0.09249003 -17.18751589 0.00845761 -13.1015625 -0.07421875 C-11.82133209 -0.11157639 -10.54110168 -0.14893402 -9.22207642 -0.18742371 C-8.04100311 -0.20767105 -6.85992981 -0.2279184 -5.64306641 -0.2487793 C-4.59937897 -0.27320602 -3.55569153 -0.29763275 -2.4803772 -0.32279968 C-1.66185272 -0.21627579 -0.84332825 -0.10975189 0 0 Z " fill="#474747" transform="translate(427,133)"/>
<path d="M0 0 C2 3 2 3 4 12 C-17.45 12 -38.9 12 -61 12 C-59.875 4.125 -59.875 4.125 -59 1 C-51.3422703 0.79998898 -43.68429812 0.6162468 -36.02569008 0.45341206 C-32.46967451 0.37729078 -28.91397449 0.29551749 -25.35839844 0.20092773 C-21.27304813 0.09249003 -17.18751589 0.00845761 -13.1015625 -0.07421875 C-11.82133209 -0.11157639 -10.54110168 -0.14893402 -9.22207642 -0.18742371 C-8.04100311 -0.20767105 -6.85992981 -0.2279184 -5.64306641 -0.2487793 C-4.59937897 -0.27320602 -3.55569153 -0.29763275 -2.4803772 -0.32279968 C-1.66185272 -0.21627579 -0.84332825 -0.10975189 0 0 Z " fill="#474747" transform="translate(427,56)"/>
<path d="M0 0 C0.66 0.33 1.32 0.66 2 1 C3.8485708 1.09101612 5.70046379 1.11753146 7.55126953 1.11352539 C8.71232208 1.11344986 9.87337463 1.11337433 11.0696106 1.11329651 C12.95714554 1.10555458 12.95714554 1.10555458 14.8828125 1.09765625 C16.16735321 1.0962413 17.45189392 1.09482635 18.77536011 1.09336853 C22.19156842 1.08954911 25.60773426 1.07972373 29.02392578 1.06866455 C32.50943426 1.05843807 35.9949496 1.05386826 39.48046875 1.04882812 C46.32033171 1.03810095 53.16015945 1.02050879 60 1 C60.99 4.63 61.98 8.26 63 12 C41.22 12 19.44 12 -3 12 C-2.01 8.04 -1.02 4.08 0 0 Z " fill="#474747" transform="translate(226,56)"/>
<path d="M0 0 C19.8 0 39.6 0 60 0 C60.99 3.63 61.98 7.26 63 11 C41.22 11 19.44 11 -3 11 C-2.01 7.37 -1.02 3.74 0 0 Z " fill="#474747" transform="translate(226,134)"/>
<path d="M0 0 C2 3 2 3 4 12 C-17.45 12 -38.9 12 -61 12 C-60 5 -60 5 -59 2 C-39.53 2 -20.06 2 0 2 C0 1.34 0 0.68 0 0 Z " fill="#484848" transform="translate(427,94)"/>
<path d="M0 0 C0.33 0.66 0.66 1.32 1 2 C20.47 2 39.94 2 60 2 C62 8 62 8 62 12 C40.55 12 19.1 12 -3 12 C-1 3 -1 3 0 0 Z " fill="#484848" transform="translate(84,94)"/>
<path d="M0 0 C19.8 0 39.6 0 60 0 C62 6 62 6 62 11 C40.88 11 19.76 11 -2 11 C-1 3 -1 3 0 0 Z " fill="#484848" transform="translate(226,95)"/>
<path d="M0 0 C8.25 0 16.5 0 25 0 C25 6.27 25 12.54 25 19 C16.75 19 8.5 19 0 19 C0 12.73 0 6.46 0 0 Z " fill="#535353" transform="translate(386,160)"/>
<path d="M0 0 C8.25 0 16.5 0 25 0 C25 6.27 25 12.54 25 19 C16.75 19 8.5 19 0 19 C0 12.73 0 6.46 0 0 Z " fill="#535353" transform="translate(101,160)"/>
<path d="M0 0 C7.92 0 15.84 0 24 0 C24 6.27 24 12.54 24 19 C16.08 19 8.16 19 0 19 C0 12.73 0 6.46 0 0 Z " fill="#535353" transform="translate(244,160)"/>
<path d="M0 0 C0.33 0 0.66 0 1 0 C1 6.27 1 12.54 1 19 C-7.25 19 -15.5 19 -24 19 C-24 16.03 -24 13.06 -24 10 C-16.08 10 -8.16 10 0 10 C0 6.7 0 3.4 0 0 Z " fill="#474747" transform="translate(410,160)"/>
<path d="M0 0 C0.33 0 0.66 0 1 0 C1 3.3 1 6.6 1 10 C8.92 10 16.84 10 25 10 C25 12.97 25 15.94 25 19 C16.75 19 8.5 19 0 19 C0 12.73 0 6.46 0 0 Z " fill="#474747" transform="translate(101,160)"/>
<path d="M0 0 C7.92 0 15.84 0 24 0 C24 2.97 24 5.94 24 9 C16.08 9 8.16 9 0 9 C0 6.03 0 3.06 0 0 Z " fill="#494949" transform="translate(244,170)"/>
</svg>
